{"glyphs":{"0":{"ha":597,"x_min":31,"x_max":576,"o":"m 515 151 q 417 39 479 78 q 275 0 354 0 q 244 1 254 0 q 144 46 196 6 q 31 319 31 141 q 60 519 31 415 q 148 657 83 603 q 288 721 212 711 q 327 724 315 724 q 489 646 427 724 q 576 396 576 540 q 515 151 576 281 m 454 588 q 384 665 427 636 q 293 694 341 694 q 222 676 256 694 q 105 488 130 628 q 97 370 97 410 q 135 179 97 262 q 262 46 172 96 q 319 31 292 31 q 440 99 388 31 q 517 349 517 202 q 454 588 517 479 z "},"1":{"ha":332,"x_min":13,"x_max":313,"o":"m 313 18 l 313 1 q 170 0 266 0 q 29 -1 74 0 q 13 18 13 1 q 15 26 13 25 q 62 32 28 32 q 112 36 96 33 q 129 56 129 40 l 129 617 q 106 606 116 614 q 81 582 96 597 q 54 558 65 567 q 31 550 42 550 q 15 554 23 550 l 15 565 q 156 710 118 644 q 178 722 164 722 q 207 712 186 722 l 207 68 q 243 31 207 41 l 313 18 z "},"2":{"ha":521,"x_min":24,"x_max":497,"o":"m 497 117 q 471 32 497 58 q 389 -4 435 -4 q 339 4 363 -4 q 271 31 315 12 q 199 59 226 50 q 143 68 171 68 q 35 10 82 68 q 24 38 24 21 q 40 83 24 52 q 60 121 57 113 q 125 216 83 177 q 249 313 168 254 q 366 415 329 372 q 403 515 403 458 q 362 637 403 569 q 256 694 329 694 q 178 679 217 694 q 117 648 139 665 q 83 598 94 631 q 76 560 76 581 q 92 498 76 534 q 161 454 106 459 q 205 471 180 454 q 244 490 231 488 q 251 475 251 484 q 237 447 251 467 q 135 400 206 400 q 44 454 78 404 q 26 515 26 481 q 32 560 26 539 q 72 640 43 605 q 144 696 102 675 q 229 721 185 717 q 272 724 257 724 q 443 643 385 724 q 480 543 480 595 q 469 478 480 515 q 403 361 448 405 q 277 268 358 316 q 155 188 196 220 q 85 101 113 157 q 200 126 157 124 q 257 119 231 126 q 318 96 282 111 q 381 73 353 81 q 447 65 409 65 q 469 103 469 69 q 467 135 469 116 q 451 160 465 147 q 436 190 437 173 q 497 117 488 168 z "},"3":{"ha":540,"x_min":26,"x_max":515,"o":"m 493 329 q 515 235 515 287 q 474 103 515 162 q 256 -3 403 -3 q 160 7 216 -3 q 69 49 105 18 q 26 126 32 80 q 56 229 26 200 q 78 247 64 238 q 101 256 92 256 q 108 249 108 256 q 96 206 107 234 q 85 154 85 178 q 150 47 91 82 q 250 22 195 22 q 385 68 326 22 q 453 196 453 120 q 445 246 453 221 q 327 360 410 349 q 276 365 293 365 q 229 337 239 365 l 215 337 q 232 381 215 367 q 280 407 248 395 q 323 431 312 419 q 406 553 406 482 q 401 583 406 569 q 294 686 386 661 q 237 694 266 694 q 150 659 186 694 q 101 575 101 609 q 114 546 101 560 q 182 524 134 524 q 207 515 207 524 q 204 510 207 512 q 129 474 180 474 q 62 521 89 477 q 53 557 53 538 q 97 649 53 594 q 267 733 163 733 q 371 711 320 733 q 426 679 405 697 q 460 631 447 662 q 471 578 471 604 q 460 519 471 554 q 432 473 449 489 q 375 426 415 457 q 410 405 377 425 q 462 368 444 385 q 493 329 481 352 z "},"4":{"ha":600,"x_min":26,"x_max":574,"o":"m 565 308 q 574 265 574 284 q 564 225 574 245 q 439 174 539 174 q 432 126 432 155 q 433 94 432 119 q 435 48 435 70 q 450 28 436 32 q 486 19 465 24 q 512 4 507 15 q 396 0 474 1 q 294 -1 318 0 q 292 13 292 7 q 321 17 300 15 q 353 25 342 20 q 365 43 363 30 q 368 84 365 57 q 371 128 371 111 q 347 185 371 166 q 238 213 275 205 q 157 222 201 222 q 105 218 133 222 q 79 193 98 216 q 46 170 59 170 q 26 180 37 170 q 34 203 26 196 q 60 220 42 210 q 86 240 78 230 q 108 281 97 258 q 133 337 119 303 q 154 388 147 371 q 186 474 171 429 q 208 548 201 520 q 231 635 216 575 q 253 722 245 694 q 272 723 258 722 q 292 724 285 724 q 321 707 316 724 q 129 268 272 484 l 129 254 q 202 250 171 254 q 284 235 233 245 q 362 222 334 225 q 369 310 363 231 q 392 432 375 389 q 451 498 409 475 q 433 227 433 398 q 471 217 436 217 q 528 257 504 218 q 535 279 535 270 q 528 307 535 289 q 521 340 521 326 q 565 308 556 340 z "},"5":{"ha":532,"x_min":21,"x_max":512,"o":"m 503 314 q 512 249 512 283 q 415 57 512 148 q 233 -7 348 -7 q 115 11 173 -7 q 55 53 79 23 q 24 125 31 83 q 21 149 21 143 q 41 215 21 185 q 93 262 61 245 q 99 264 95 262 q 105 265 103 265 q 113 258 109 265 q 79 171 79 220 q 92 113 79 142 q 126 62 105 80 q 185 28 147 43 q 257 14 220 14 q 374 62 320 14 q 449 219 449 131 q 440 276 449 248 q 265 446 390 436 q 221 447 250 447 q 118 390 146 447 q 110 371 115 385 q 100 350 105 357 q 85 343 94 343 q 61 358 61 343 q 82 402 62 376 q 105 443 101 428 q 119 536 118 485 q 121 636 120 587 q 135 722 122 685 q 140 725 136 725 q 151 711 151 725 q 162 697 151 706 q 254 720 202 720 q 368 704 278 720 q 389 701 384 701 q 468 726 415 701 q 451 674 468 697 q 374 637 422 637 q 307 646 353 637 q 236 655 261 655 q 167 633 194 655 q 153 612 158 625 q 145 583 148 600 q 142 552 142 566 q 140 524 141 538 q 137 505 139 517 q 134 483 135 493 q 133 454 133 472 q 203 468 148 456 q 292 480 258 480 q 346 474 316 480 q 443 419 400 461 q 503 314 485 376 z "},"6":{"ha":574,"x_min":19,"x_max":549,"o":"m 535 308 q 549 233 549 273 q 489 82 549 155 q 306 -4 418 -4 q 194 15 252 -4 q 124 55 151 31 q 71 122 98 79 q 50 167 60 141 q 19 328 19 252 q 51 483 19 408 q 143 621 82 558 q 360 729 249 729 q 461 704 409 729 q 512 650 503 681 q 517 622 517 636 q 493 571 517 591 q 453 549 470 549 q 436 551 448 549 q 447 585 436 561 q 458 624 458 610 q 432 665 458 646 q 337 699 385 699 q 280 685 308 699 q 148 543 189 637 q 107 331 107 448 q 113 240 107 278 q 240 43 134 91 q 325 24 283 24 q 418 54 378 24 q 482 179 482 103 q 476 233 482 208 q 442 331 464 292 q 375 388 420 370 q 314 400 342 400 q 225 372 270 400 q 202 348 212 365 q 182 319 191 332 q 161 301 174 306 q 186 367 161 334 q 335 437 234 433 q 455 403 399 437 q 535 308 511 369 z "},"7":{"ha":555,"x_min":22,"x_max":531,"o":"m 531 693 q 504 654 522 667 q 465 626 487 641 q 433 590 443 611 q 366 466 394 532 q 319 328 337 399 q 293 186 302 257 q 282 29 284 114 q 257 1 282 8 q 239 -1 251 -1 q 215 10 221 -1 q 203 86 203 40 q 205 149 203 104 q 229 273 210 214 q 277 384 249 331 q 350 512 305 437 q 413 618 396 586 q 368 629 394 629 q 341 628 361 629 q 306 626 321 626 q 214 650 274 629 q 126 671 154 671 q 56 618 79 671 q 52 592 52 610 q 79 539 54 556 q 111 532 90 532 q 137 534 125 532 q 154 537 149 536 q 115 502 149 513 q 93 498 107 498 q 46 515 69 498 q 22 574 22 533 q 28 612 22 593 q 69 679 38 651 q 140 717 99 706 q 188 724 168 724 q 242 716 215 724 q 309 693 269 709 q 373 670 349 677 q 426 661 398 663 q 445 666 437 661 q 464 684 453 672 q 481 702 475 696 q 494 708 486 707 q 531 693 531 708 z "},"8":{"ha":564,"x_min":21,"x_max":539,"o":"m 518 294 q 539 211 539 255 q 504 104 539 154 q 272 -4 429 -4 q 180 4 227 -4 q 29 132 65 23 q 21 183 21 158 q 76 304 21 255 q 103 325 87 314 q 135 347 119 337 q 162 365 151 357 q 92 435 116 404 q 68 510 68 465 q 158 685 68 627 q 306 729 227 729 q 404 706 360 729 q 472 637 448 684 q 488 567 488 602 q 451 463 488 505 q 410 430 439 448 q 374 406 382 413 q 426 376 388 395 q 485 339 463 357 q 518 294 508 322 m 435 532 q 396 647 435 604 q 272 699 347 699 q 151 640 195 699 q 122 560 122 603 q 142 494 122 524 q 174 459 155 473 q 214 438 193 445 q 259 425 236 430 q 313 414 282 420 q 394 457 359 426 q 435 532 429 488 m 472 232 q 396 304 459 281 q 332 330 360 318 q 279 348 304 341 q 229 356 254 356 q 119 289 162 356 q 93 203 93 248 q 114 119 93 163 q 162 57 134 75 q 223 38 181 45 q 292 32 255 32 q 451 96 399 34 q 482 175 482 132 q 472 232 482 196 z "},"9":{"ha":575,"x_min":22,"x_max":549,"o":"m 504 604 q 549 419 549 525 q 471 157 549 271 q 394 75 437 111 q 301 17 351 38 q 200 -4 251 -4 q 129 7 167 -4 q 56 75 66 29 q 53 99 53 92 q 65 139 53 118 q 88 170 78 160 q 111 180 97 180 q 126 176 118 180 q 140 160 140 170 q 128 132 140 152 q 115 100 115 112 q 121 79 115 89 q 218 26 155 26 q 352 78 295 26 q 436 203 410 129 q 476 407 476 319 q 418 610 476 514 q 267 700 363 700 q 217 693 237 700 q 101 576 130 666 q 89 504 89 539 q 175 351 89 404 q 262 322 219 322 q 329 339 293 322 q 360 360 348 347 q 388 394 372 372 q 413 425 404 416 q 419 413 419 421 q 407 378 419 396 q 326 309 372 333 q 218 285 281 285 q 47 390 99 294 q 22 483 22 434 q 58 604 22 541 q 272 724 123 717 q 504 604 431 724 z "},"#":{"ha":1042,"x_min":174,"x_max":868,"o":"m 174 0 l 174 868 l 868 868 l 868 0 l 174 0 m 846 22 l 846 846 l 196 846 l 196 22 l 846 22 z "}," ":{"ha":371,"x_min":0,"x_max":0,"o":""},"!":{"ha":156,"x_min":28,"x_max":132,"o":"m 122 585 q 106 418 115 503 q 93 281 98 334 q 85 172 88 228 q 68 183 78 172 q 60 304 64 232 q 54 427 57 376 q 46 539 52 479 q 29 665 40 600 q 62 721 29 709 q 82 725 73 725 q 115 707 103 725 q 132 657 132 685 q 127 619 132 645 q 122 585 123 593 m 124 78 q 129 53 129 67 q 96 3 126 13 q 79 0 84 0 q 31 35 45 0 q 28 53 28 46 q 47 93 30 80 q 78 103 59 103 q 124 78 109 103 z "},"\"":{"ha":327,"x_min":31,"x_max":301,"o":"m 151 868 q 161 811 161 841 q 136 724 161 766 q 64 635 112 683 q 40 620 49 620 q 31 636 31 620 q 135 825 135 714 q 117 836 127 836 q 95 831 110 836 q 72 825 80 825 q 44 843 57 825 q 33 873 33 859 q 40 896 33 885 q 86 921 63 921 q 151 868 133 921 m 292 868 q 301 811 301 841 q 277 724 301 766 q 204 635 252 683 q 180 620 189 620 q 171 636 171 620 q 275 825 275 714 q 257 836 268 836 q 235 831 250 836 q 213 825 220 825 q 185 843 197 825 q 174 872 174 859 q 182 896 174 883 q 227 921 205 921 q 292 868 275 921 z "},"$":{"ha":518,"x_min":21,"x_max":494,"o":"m 486 149 q 441 78 474 104 q 342 17 407 53 q 337 -63 337 -7 q 331 -146 337 -119 l 310 -142 q 310 -108 310 -130 q 311 -67 311 -86 q 304 17 311 -18 q 210 5 271 5 q 204 -73 205 -22 q 201 -147 204 -124 q 190 -146 196 -147 q 180 -143 183 -144 l 182 10 q 92 47 127 26 q 35 111 57 68 q 21 164 21 140 q 43 219 21 199 q 65 229 51 229 q 171 62 90 84 l 186 68 l 183 321 q 78 400 110 348 q 53 483 53 437 q 65 549 53 515 q 113 621 81 592 q 185 659 144 649 q 184 705 185 681 q 183 735 183 729 q 190 767 183 756 q 211 726 211 760 q 210 695 211 715 q 208 660 208 675 q 237 661 216 660 q 268 663 257 663 q 308 660 296 663 q 317 696 317 673 q 315 727 317 704 q 313 768 313 750 l 322 777 q 342 655 342 752 q 449 568 436 626 q 451 539 451 549 q 433 490 451 510 q 403 475 415 477 q 388 478 398 475 q 383 488 383 482 q 391 506 383 493 q 399 529 399 520 q 354 610 396 597 l 346 603 l 343 389 q 383 367 357 379 q 425 345 408 355 q 457 315 443 334 q 494 205 494 263 q 486 149 494 178 m 185 625 q 167 622 175 625 q 155 615 159 619 q 143 603 150 611 q 135 593 137 596 q 101 511 101 560 q 113 465 101 489 q 180 413 143 413 q 188 494 188 440 q 186 553 188 510 q 185 625 185 596 m 310 621 q 288 626 300 623 q 266 632 276 630 q 246 635 255 634 q 213 629 225 635 l 213 408 q 307 393 257 393 q 310 621 310 463 m 310 57 l 310 294 q 267 299 299 297 q 215 311 234 301 l 215 54 l 223 48 q 310 57 265 48 m 435 222 q 400 269 427 250 q 343 290 373 288 l 343 62 q 413 97 380 62 q 442 172 442 126 q 435 222 442 193 z "},"%":{"ha":571,"x_min":15,"x_max":567,"o":"m 242 356 q 293 449 264 396 q 378 608 322 503 q 435 715 433 713 l 485 715 q 424 597 451 648 q 360 480 396 547 q 290 354 323 413 q 225 230 283 341 q 139 69 168 119 q 95 1 111 19 q 119 135 95 67 q 242 356 118 135 m 271 582 q 180 496 252 513 q 143 492 162 492 q 50 525 90 492 q 15 596 15 552 q 21 632 15 615 q 63 694 32 670 q 136 724 93 719 q 206 714 180 724 q 251 682 233 704 q 275 615 275 655 q 271 582 275 599 m 232 663 q 183 703 208 695 q 146 708 167 708 q 79 669 105 708 q 60 602 60 638 q 65 561 60 585 q 92 525 73 539 q 138 510 112 511 q 188 515 169 510 q 221 539 207 520 q 249 610 249 573 q 232 663 249 636 m 563 89 q 472 4 544 19 q 433 -1 454 -1 q 342 32 384 -1 q 307 103 307 61 q 313 139 307 123 q 355 201 324 177 q 428 231 385 225 q 543 189 507 231 q 567 124 567 163 q 563 89 567 106 m 524 170 q 475 210 500 204 q 436 215 457 215 q 371 176 395 215 q 351 110 351 147 q 357 68 351 92 q 384 32 364 46 q 429 17 404 18 q 480 22 461 17 q 512 46 499 27 q 540 117 540 80 q 524 170 540 145 z "},"&":{"ha":739,"x_min":8,"x_max":715,"o":"m 711 408 q 715 376 715 397 q 692 314 715 341 q 624 286 666 286 q 640 304 625 294 q 660 321 655 313 q 678 376 678 351 q 663 417 678 400 q 561 460 626 457 q 519 454 546 460 q 525 406 522 440 q 528 327 528 372 q 424 19 528 92 q 365 1 398 1 q 319 7 341 1 q 240 67 264 20 q 204 192 216 113 q 201 223 201 214 q 213 314 201 257 q 225 390 224 371 q 126 398 164 390 q 57 437 88 406 q 8 546 8 491 q 18 598 8 567 q 126 701 45 684 q 165 706 144 706 q 246 678 212 706 q 310 517 310 625 q 301 415 310 467 q 391 443 322 427 q 500 467 459 459 q 498 545 498 496 q 478 664 498 619 q 447 679 472 672 q 421 699 422 687 q 473 702 444 702 q 533 703 502 703 q 586 707 563 704 l 590 697 q 559 681 586 690 q 526 654 533 672 q 518 550 518 617 q 519 471 518 494 q 553 476 530 472 q 589 480 577 480 q 631 474 613 480 q 684 448 665 462 q 711 408 703 435 m 231 639 q 161 685 216 685 q 138 682 154 685 q 103 663 114 676 q 74 618 91 649 q 60 557 60 588 q 107 446 60 497 q 197 408 144 408 q 228 411 208 408 q 246 535 246 469 q 231 639 246 589 m 498 447 q 397 427 462 441 q 301 400 332 413 q 287 329 297 376 q 271 245 277 282 q 265 175 265 209 q 337 29 265 67 q 371 21 355 21 q 449 72 420 21 q 502 301 502 165 q 500 372 502 330 q 498 447 498 415 z "},"'":{"ha":200,"x_min":31,"x_max":161,"o":"m 151 868 q 161 811 161 841 q 136 724 161 766 q 64 635 112 683 q 40 620 49 620 q 31 636 31 620 q 135 825 135 714 q 117 836 127 836 q 95 831 110 836 q 72 825 80 825 q 44 843 57 825 q 33 873 33 859 q 40 896 33 885 q 86 921 63 921 q 151 868 133 921 z "},"(":{"ha":270,"x_min":17,"x_max":276,"o":"m 276 7 q 202 20 239 10 q 144 46 166 30 q 17 336 17 151 q 42 506 17 414 q 95 606 57 560 q 183 681 134 652 q 274 715 232 709 q 223 681 257 701 q 165 642 190 662 q 121 586 141 622 q 92 492 101 550 q 83 367 83 416 q 160 76 83 178 q 188 51 171 61 q 233 28 204 41 q 276 7 261 16 z "},")":{"ha":286,"x_min":-15,"x_max":244,"o":"m 219 506 q 244 336 244 414 q 117 46 244 151 q 58 20 95 30 q -15 7 22 10 q 28 28 0 16 q 74 51 57 41 q 101 76 90 61 q 178 367 178 178 q 170 492 178 416 q 140 586 160 550 q 97 642 120 623 q 38 682 73 661 q -13 715 3 702 q 78 681 30 709 q 166 606 127 652 q 219 506 204 560 z "},"*":{"ha":396,"x_min":21,"x_max":376,"o":"m 236 379 q 227 254 236 268 q 182 321 192 288 q 183 375 181 321 q 90 294 110 296 q 104 374 90 346 q 149 415 107 374 q 21 424 35 415 q 87 469 58 460 q 153 467 86 469 q 74 543 119 502 l 110 579 q 186 506 155 538 q 185 611 186 576 l 235 611 q 237 498 237 572 q 276 538 252 513 q 313 576 300 564 l 349 540 q 274 465 325 513 l 376 465 l 376 415 q 276 413 307 413 q 336 354 316 375 q 356 321 356 333 q 276 336 307 321 q 236 379 280 336 z "},"+":{"ha":396,"x_min":21,"x_max":376,"o":"m 185 415 q 139 415 170 415 q 95 414 109 414 q 21 424 32 414 q 87 469 58 460 q 126 467 101 469 q 186 465 151 466 q 185 611 186 564 l 235 611 q 237 465 237 561 l 376 465 l 376 415 q 236 414 329 414 l 236 327 q 227 254 236 266 q 182 321 192 288 q 185 415 182 321 z "},",":{"ha":200,"x_min":31,"x_max":161,"o":"m 151 43 q 161 -14 161 16 q 136 -101 161 -59 q 64 -190 112 -142 q 40 -205 49 -205 q 31 -189 31 -205 q 135 0 135 -111 q 117 11 127 11 q 95 6 110 11 q 72 0 80 0 q 44 18 57 0 q 33 48 33 34 q 40 71 33 60 q 86 96 63 96 q 151 43 133 96 z "},"-":{"ha":396,"x_min":21,"x_max":376,"o":"m 197 465 l 376 465 l 376 415 l 196 415 q 142 415 179 415 q 89 414 105 414 q 21 424 33 414 q 87 469 58 460 q 197 465 68 469 z "},".":{"ha":200,"x_min":40,"x_max":136,"o":"m 133 67 q 136 50 136 61 q 124 18 134 30 q 85 0 108 0 q 68 3 79 0 q 40 44 40 14 q 48 72 40 59 q 82 96 60 92 q 133 67 122 96 z "},"/":{"ha":463,"x_min":36,"x_max":426,"o":"m 183 356 q 234 449 205 396 q 319 608 263 503 q 376 715 375 713 l 426 715 q 232 354 368 600 q 167 230 225 341 q 80 69 109 119 q 36 1 52 18 q 61 135 36 66 q 183 356 60 135 z "},":":{"ha":200,"x_min":40,"x_max":136,"o":"m 133 378 q 136 361 136 372 q 124 329 134 341 q 85 311 108 311 q 68 314 79 311 q 40 356 40 324 q 48 383 40 371 q 82 407 61 403 q 133 378 122 407 m 133 70 q 136 53 136 64 q 124 21 134 33 q 85 3 107 3 q 68 5 79 3 q 40 47 40 16 q 48 75 40 63 q 82 99 61 95 q 133 70 122 99 z "},";":{"ha":200,"x_min":31,"x_max":161,"o":"m 133 378 q 136 361 136 372 q 124 329 134 341 q 85 311 108 311 q 68 314 79 311 q 40 356 40 324 q 48 383 40 371 q 82 407 61 403 q 133 378 122 407 m 151 43 q 161 -14 161 16 q 136 -101 161 -59 q 64 -190 112 -142 q 40 -205 49 -205 q 31 -189 31 -205 q 135 0 135 -111 q 117 11 127 11 q 95 6 110 11 q 72 0 80 0 q 44 18 57 0 q 33 48 33 34 q 40 71 33 60 q 86 96 63 96 q 151 43 133 96 z "},"<":{"ha":371,"x_min":18,"x_max":313,"o":"m 18 282 q 84 340 37 298 q 186 431 132 381 q 279 518 241 481 l 313 502 q 166 367 265 454 q 62 280 68 280 q 115 224 63 279 q 219 116 168 170 q 306 24 270 62 l 276 5 q 107 175 171 109 q 18 282 44 241 z "},"=":{"ha":396,"x_min":21,"x_max":376,"o":"m 197 465 l 376 465 l 376 415 l 196 415 q 142 415 179 415 q 89 414 105 414 q 21 424 33 414 q 87 469 58 460 q 197 465 68 469 m 197 329 l 376 329 l 376 279 l 196 279 q 142 278 179 279 q 89 278 105 278 q 21 288 33 278 q 87 333 58 325 q 197 329 68 333 z "},">":{"ha":371,"x_min":43,"x_max":336,"o":"m 336 282 q 254 183 310 241 q 79 5 199 125 l 48 24 q 185 168 81 58 q 293 280 290 277 q 192 365 287 280 q 43 502 97 449 l 75 518 q 209 394 125 468 q 336 282 293 319 z "},"?":{"ha":408,"x_min":21,"x_max":375,"o":"m 361 645 q 375 585 375 615 q 337 482 375 541 q 246 401 313 446 q 147 323 179 356 q 115 228 115 290 q 160 190 119 201 q 179 188 174 188 q 227 204 198 188 q 243 228 235 210 q 264 249 251 247 q 213 171 261 193 q 171 161 193 161 q 118 182 141 161 q 92 251 92 213 q 104 307 92 281 q 192 400 122 343 q 288 484 261 456 q 315 557 315 512 q 285 637 315 595 q 183 686 251 684 q 124 679 146 686 q 87 649 102 672 q 68 606 68 619 q 78 579 68 593 q 106 560 83 572 q 129 531 129 548 q 95 518 121 518 q 40 540 57 518 q 21 588 21 562 q 28 618 21 598 q 193 721 71 721 q 229 718 204 721 q 311 697 278 712 q 361 645 343 681 m 221 57 q 207 10 221 22 q 175 -3 193 -3 q 153 1 163 -3 q 122 44 122 12 q 125 62 122 50 q 164 96 134 91 q 221 57 210 96 z "},"A":{"ha":940,"x_min":39,"x_max":895,"o":"m 881 4 q 833 0 873 1 q 781 -1 793 -1 q 664 1 682 -1 q 672 22 664 17 q 697 30 681 27 q 721 38 714 33 q 739 74 739 50 q 735 97 739 85 q 724 126 731 109 q 714 153 717 143 q 682 247 693 218 q 653 310 671 277 q 545 288 602 288 q 401 332 464 288 q 337 390 348 368 q 307 314 332 377 q 270 228 281 252 q 256 196 269 225 q 237 148 243 168 q 231 111 231 129 q 246 54 231 81 q 258 44 250 47 q 281 39 267 41 q 302 32 295 36 q 308 19 308 28 q 304 4 308 13 q 192 -1 302 1 q 64 7 68 -1 q 71 25 64 21 q 96 32 79 30 q 119 40 114 35 q 182 121 156 77 q 224 201 209 164 q 265 308 239 237 q 307 415 291 379 q 248 496 275 467 q 179 529 222 524 q 104 508 126 529 q 82 431 82 486 q 90 406 83 424 q 97 380 97 388 q 87 371 97 373 q 62 387 75 371 q 43 422 48 404 q 39 457 39 439 q 79 543 41 512 q 178 582 125 582 q 225 572 203 582 q 336 503 308 535 q 346 522 340 510 q 354 542 352 534 q 403 675 384 624 q 449 800 422 727 q 490 914 476 872 q 506 928 496 928 q 527 914 516 928 q 543 887 538 900 q 607 698 567 819 q 683 467 646 577 q 752 262 719 357 q 824 64 785 167 q 837 50 828 54 q 863 42 846 46 q 887 35 879 38 q 895 25 895 32 q 881 4 895 18 m 635 356 q 585 516 611 437 q 533 677 560 595 q 494 793 506 760 q 376 479 455 709 q 447 394 416 424 q 524 346 478 363 q 569 337 545 337 q 635 356 609 337 z "},"B":{"ha":807,"x_min":36,"x_max":773,"o":"m 753 370 q 773 271 773 322 q 710 110 773 182 q 579 21 655 46 q 400 -4 503 -4 q 257 3 340 -4 q 175 7 211 7 q 43 -8 112 7 q 36 -1 36 -4 q 38 4 36 1 q 43 11 41 7 q 87 31 55 23 q 133 45 119 39 q 154 72 146 51 q 159 98 156 81 q 161 129 161 115 q 160 430 161 199 q 160 738 160 662 q 160 863 160 813 q 143 882 159 879 q 97 886 128 886 q 54 893 68 886 q 65 915 54 915 q 171 921 81 916 q 314 926 260 926 q 532 892 444 926 q 653 764 619 857 q 660 725 660 747 q 629 636 660 696 q 588 586 613 606 q 522 544 563 566 q 475 519 481 523 q 582 502 555 511 q 691 450 652 477 q 753 370 730 423 m 664 378 q 570 464 632 440 q 424 488 508 488 q 303 480 363 488 q 296 488 296 482 q 318 514 296 501 q 383 529 354 522 q 438 546 411 536 q 491 572 464 555 q 540 612 517 588 q 571 706 571 645 q 550 796 571 759 q 493 852 528 833 q 401 885 458 871 q 335 893 367 893 q 247 879 295 893 q 245 729 245 819 q 244 519 244 639 q 243 325 244 400 q 240 156 243 249 q 250 68 240 100 q 296 32 259 36 q 386 28 339 28 q 654 151 592 28 q 690 276 690 217 q 664 378 690 327 z "},"C":{"ha":775,"x_min":18,"x_max":740,"o":"m 740 207 q 670 107 717 154 q 562 32 623 60 q 440 1 502 4 q 226 54 317 1 q 75 210 134 107 q 18 408 18 309 q 79 640 18 511 q 172 784 118 725 q 295 878 225 843 q 457 924 366 912 q 551 907 497 924 q 625 890 604 890 q 671 901 644 890 q 681 904 680 904 q 696 895 690 904 q 701 873 701 885 q 710 711 701 764 q 701 701 708 701 q 681 724 685 701 q 653 794 674 759 q 600 854 632 829 q 532 887 567 880 q 465 896 499 896 q 214 751 329 896 q 132 601 160 684 q 103 433 103 518 q 197 154 103 271 q 437 42 286 42 q 512 48 471 42 q 635 107 578 63 q 725 213 691 152 l 740 207 z "},"D":{"ha":912,"x_min":42,"x_max":875,"o":"m 821 693 q 875 478 875 593 q 799 194 875 338 q 694 78 758 122 q 554 18 631 35 q 390 0 477 0 q 164 21 301 0 q 113 12 145 21 q 65 3 81 3 q 42 7 54 3 q 65 32 49 24 q 109 48 81 40 q 150 65 137 56 q 164 90 164 73 l 164 865 q 118 893 162 893 q 92 892 111 893 q 61 892 74 892 q 56 901 56 896 q 68 912 56 912 q 311 926 236 926 q 586 887 456 926 q 725 816 672 860 q 821 693 779 772 m 732 682 q 574 842 683 789 q 339 896 466 896 q 247 889 294 896 l 246 68 l 257 52 q 406 40 335 40 q 577 70 501 40 q 704 175 653 100 q 747 259 729 214 q 773 354 764 305 q 782 453 782 404 q 732 682 782 575 z "},"E":{"ha":790,"x_min":31,"x_max":747,"o":"m 743 190 q 747 99 747 152 q 739 1 747 35 q 561 2 629 1 q 424 2 493 2 q 247 3 356 3 q 54 0 184 3 q 47 11 47 3 q 50 19 47 17 q 81 24 56 24 q 111 32 103 24 q 126 48 123 42 q 129 71 129 54 l 131 863 q 117 889 131 882 q 78 896 104 895 q 43 899 52 896 q 31 914 31 899 q 43 928 31 926 q 203 929 95 929 q 558 926 331 929 l 645 926 q 647 863 645 903 q 649 803 649 822 q 646 749 649 785 q 633 785 636 763 q 621 817 629 808 q 606 847 614 825 q 589 880 597 869 q 560 890 580 890 l 205 893 l 205 569 l 574 568 q 606 583 594 568 q 630 628 618 597 q 643 661 642 659 l 653 645 l 653 537 q 645 465 653 492 q 622 496 634 473 q 601 529 610 518 q 574 540 591 540 l 204 542 l 204 31 l 618 33 q 686 62 663 33 q 722 140 709 90 l 722 170 q 743 190 722 190 z "},"F":{"ha":665,"x_min":32,"x_max":637,"o":"m 635 757 q 614 770 619 757 q 605 805 608 782 q 600 835 603 828 q 576 876 589 864 q 529 887 564 887 l 190 889 l 190 568 l 555 568 q 585 580 575 568 q 604 617 595 592 q 620 655 613 642 l 629 657 q 635 551 635 586 q 629 471 635 507 q 604 498 619 474 q 578 532 589 521 q 550 543 568 543 l 185 543 l 189 65 q 203 42 189 46 q 253 34 216 37 q 310 21 291 30 q 313 17 313 19 q 301 6 313 12 q 279 0 289 0 l 43 0 q 33 15 33 0 q 65 26 39 22 q 103 34 90 29 q 115 58 115 40 l 115 867 q 100 889 115 882 q 58 902 84 896 q 32 912 32 908 q 43 924 32 918 q 156 925 45 924 q 384 925 268 925 q 625 925 500 925 q 635 914 635 925 q 636 868 635 915 q 637 794 637 822 q 635 757 637 757 z "},"G":{"ha":830,"x_min":38,"x_max":793,"o":"m 793 368 q 776 348 793 357 q 755 327 759 338 q 594 40 740 109 q 406 -4 497 -4 q 193 70 286 -4 q 38 413 38 191 q 46 528 38 468 q 143 758 62 660 q 342 906 224 857 q 450 926 389 926 q 628 897 514 926 q 655 903 642 897 q 676 908 669 908 q 686 896 686 908 q 692 832 686 877 q 699 760 699 787 q 692 714 699 733 q 676 731 681 721 q 664 761 671 741 q 651 793 658 781 q 457 896 594 896 q 443 895 452 896 q 429 895 434 895 q 135 581 211 882 q 117 433 117 509 q 161 227 118 321 q 292 64 204 132 q 418 25 347 25 q 524 43 466 25 q 623 109 585 62 q 665 221 660 155 q 669 254 666 232 q 672 286 672 276 q 640 340 672 328 q 615 345 633 343 q 587 353 597 348 q 578 371 578 358 q 751 374 683 371 q 775 376 761 374 q 793 368 790 376 z "},"H":{"ha":911,"x_min":32,"x_max":877,"o":"m 873 895 q 839 887 869 890 q 793 879 810 884 q 777 857 777 873 l 777 64 q 786 47 777 53 q 814 38 795 42 q 840 31 832 34 q 849 18 849 27 q 842 0 849 8 l 606 0 q 598 7 598 0 q 604 19 598 14 q 640 25 608 20 q 686 39 671 31 q 701 65 701 47 l 703 526 l 210 526 l 210 71 q 216 54 210 59 q 239 46 223 50 q 267 37 255 42 q 288 18 279 31 q 282 8 288 13 q 274 1 277 3 l 38 1 q 32 14 32 7 q 39 29 32 23 q 77 43 47 39 q 117 50 107 46 q 128 71 128 53 l 132 853 q 122 872 132 866 q 94 886 113 879 q 65 901 75 893 q 56 926 56 910 l 294 926 q 304 904 304 914 q 284 887 297 891 q 250 880 272 883 q 218 871 228 876 q 208 851 208 866 l 207 564 l 704 564 l 704 861 q 694 880 704 876 q 655 891 683 884 q 626 906 626 897 q 639 925 626 912 l 863 925 q 872 917 868 924 q 877 903 877 910 q 873 895 877 897 z "},"I":{"ha":276,"x_min":7,"x_max":282,"o":"m 188 71 q 194 54 188 59 q 217 46 201 50 q 245 37 233 42 q 264 18 256 31 q 259 6 264 12 q 250 -1 253 1 q 14 1 172 -1 q 7 13 7 11 q 13 21 7 12 q 50 36 20 30 q 92 47 80 42 q 104 71 104 53 l 108 853 q 99 872 108 866 q 70 886 89 879 q 42 901 52 893 q 32 926 32 910 l 271 926 q 282 904 282 912 q 262 887 274 891 q 227 880 250 883 q 195 871 205 877 q 185 851 185 866 l 188 71 z "},"J":{"ha":663,"x_min":24,"x_max":632,"o":"m 632 907 q 596 893 622 898 q 561 884 570 887 q 551 865 551 880 q 552 770 551 839 q 553 661 553 702 q 524 237 553 405 q 471 98 511 156 q 362 17 430 40 q 267 0 315 0 q 166 18 215 0 q 79 71 117 36 q 24 193 24 116 q 38 268 24 233 q 168 388 77 372 q 204 390 193 390 q 323 323 296 390 q 335 289 335 300 q 327 268 335 278 q 305 289 315 274 q 286 318 295 305 q 262 335 277 330 q 211 345 230 345 q 168 335 189 345 q 99 229 113 311 q 95 190 95 211 q 115 112 95 148 q 172 54 135 77 q 257 32 215 32 q 374 75 322 32 q 451 190 432 122 q 469 361 469 259 q 469 431 469 384 q 468 503 468 478 l 468 865 q 456 884 468 880 q 418 889 443 889 q 383 891 393 889 q 371 903 373 893 q 377 915 371 911 q 396 921 382 918 q 411 925 410 925 q 481 928 435 925 q 550 930 527 930 q 626 922 594 930 l 632 907 z "},"K":{"ha":800,"x_min":31,"x_max":761,"o":"m 761 54 q 708 -5 759 11 q 672 -10 697 -10 q 582 25 618 -7 q 445 194 498 102 q 401 276 424 229 q 358 370 378 323 q 304 494 337 418 l 199 364 q 200 195 199 264 q 201 67 200 126 q 218 47 204 52 q 258 36 231 43 q 286 22 286 30 q 262 -3 286 13 q 211 0 244 0 q 155 -2 192 0 q 97 -4 118 -4 q 48 -1 85 -4 q 39 33 39 8 q 73 40 50 38 q 107 46 96 41 q 118 68 118 51 l 115 840 q 89 878 115 878 l 74 878 q 54 885 61 878 q 43 896 47 891 q 34 906 38 900 q 31 920 31 912 q 271 922 90 922 q 275 911 273 919 q 278 893 278 903 q 229 877 265 877 q 204 871 212 877 q 196 843 196 865 q 196 644 196 772 q 194 425 196 516 l 551 843 q 563 864 563 852 q 550 878 563 874 q 513 885 538 883 q 477 890 489 888 q 460 899 465 892 q 465 917 460 908 q 476 926 470 925 q 535 927 491 926 q 603 928 579 928 q 708 918 708 928 q 699 898 708 903 q 667 887 690 893 q 635 871 644 880 q 563 801 592 835 q 467 686 534 768 q 364 568 401 605 q 444 379 407 456 q 540 214 481 301 q 578 152 553 195 q 622 86 602 109 q 675 46 642 63 q 685 43 681 43 q 713 56 694 43 q 742 68 732 68 q 761 54 753 68 z "},"L":{"ha":722,"x_min":10,"x_max":678,"o":"m 678 185 l 678 0 l 40 0 q 29 24 29 11 q 32 32 29 29 q 85 74 72 40 q 99 168 99 109 q 98 213 99 183 q 97 258 97 244 q 98 580 97 400 q 99 851 98 760 q 93 874 99 868 q 79 883 87 881 q 60 887 70 885 l 26 887 q 10 899 10 887 q 39 924 12 921 q 121 925 67 924 q 203 926 175 926 q 288 921 249 926 q 282 910 286 917 q 274 900 279 904 q 232 888 262 891 q 188 879 201 884 q 175 857 175 875 l 175 42 l 365 42 q 585 56 514 42 q 613 83 607 60 q 625 137 618 106 q 650 180 631 168 q 671 192 664 192 l 678 185 z "},"M":{"ha":1078,"x_min":21,"x_max":1008,"o":"m 996 922 q 980 902 995 909 q 932 882 966 896 q 873 851 898 868 q 872 771 872 826 q 879 504 872 650 q 895 249 887 357 q 907 135 904 140 q 918 62 909 83 q 956 32 926 42 q 979 33 965 32 q 996 35 992 35 q 1008 26 1007 35 q 985 -1 1008 -1 q 927 -2 965 -1 q 869 -3 888 -3 q 747 7 785 -3 q 742 17 742 9 q 744 25 742 24 q 782 38 753 33 q 818 45 810 43 q 826 58 826 47 q 814 425 814 247 q 829 799 814 621 q 715 621 762 707 q 637 455 669 535 q 582 298 606 375 q 522 107 557 221 q 502 97 519 97 q 480 125 480 105 q 485 147 480 135 q 497 177 489 158 q 510 205 506 196 q 196 777 348 564 q 198 628 197 723 q 198 443 198 534 q 201 263 199 351 q 210 82 203 175 q 249 40 210 58 l 308 31 q 311 21 311 21 q 309 14 311 16 q 301 9 306 11 q 292 6 295 7 q 282 4 288 5 q 206 2 257 4 q 131 0 155 0 q 48 7 80 0 q 90 32 58 20 q 134 51 121 44 q 149 79 147 59 q 161 563 158 234 q 160 842 161 754 q 93 893 150 872 q 59 892 77 893 q 38 890 41 890 q 21 900 23 890 q 29 916 21 909 q 47 924 37 924 q 86 927 60 924 q 125 929 113 929 q 246 860 205 929 q 329 723 291 786 q 398 606 367 661 q 467 477 430 551 q 546 311 505 402 q 620 502 586 413 q 697 672 655 591 q 803 825 740 754 q 951 943 865 896 q 965 947 958 947 q 986 940 977 947 q 996 922 996 932 z "},"N":{"ha":942,"x_min":50,"x_max":907,"o":"m 907 903 q 893 865 907 872 q 861 854 879 859 q 833 845 842 850 q 818 828 825 840 q 768 685 781 758 q 754 522 754 612 q 755 427 754 497 q 757 304 757 356 q 759 193 757 245 q 766 71 762 140 q 772 -14 771 2 q 755 -26 772 -26 q 735 -17 742 -26 q 611 190 686 71 q 457 429 536 309 q 314 643 378 549 q 207 797 250 737 q 210 614 210 678 q 207 400 210 546 q 204 174 205 254 q 203 146 204 165 q 203 118 203 127 q 243 43 203 55 q 268 38 250 41 q 293 32 285 35 q 301 22 301 29 q 297 11 301 17 q 237 -5 286 -5 q 199 -4 228 -5 q 146 -3 169 -3 q 125 -6 139 -3 q 103 -8 111 -8 q 75 7 80 -8 q 94 34 75 21 q 115 52 113 48 q 152 119 140 87 q 166 182 163 151 q 172 272 170 213 q 180 575 180 443 q 171 843 180 709 q 141 871 166 866 q 85 878 115 875 q 50 899 55 882 q 79 924 50 917 q 110 930 89 925 q 143 937 130 935 q 168 939 155 939 q 229 912 204 939 q 365 741 302 826 q 484 573 429 657 q 597 393 540 489 q 721 179 655 297 l 721 237 q 754 824 721 653 q 836 929 770 907 q 861 933 849 933 q 907 903 905 930 z "},"O":{"ha":838,"x_min":38,"x_max":801,"o":"m 765 689 q 801 482 801 586 q 781 331 801 405 q 720 193 761 257 q 620 79 679 128 q 514 20 573 40 q 393 0 455 0 q 276 19 334 0 q 111 160 169 57 q 39 386 53 263 q 38 422 38 399 q 71 616 38 521 q 170 787 105 711 q 323 901 235 862 q 435 928 376 928 q 655 839 545 928 q 724 771 700 804 q 765 689 748 739 m 710 235 q 760 428 760 336 q 681 679 760 547 q 493 846 602 815 q 406 858 450 858 q 199 771 286 858 q 100 502 100 672 q 149 268 100 383 q 261 132 186 184 q 428 76 336 81 q 710 235 626 76 z "},"P":{"ha":760,"x_min":46,"x_max":730,"o":"m 707 743 q 730 628 730 688 q 675 471 730 539 q 574 383 631 414 q 453 351 516 351 q 365 367 412 351 q 309 394 329 380 q 280 437 289 409 q 275 467 275 452 q 292 519 275 484 q 335 540 303 540 q 337 528 337 532 q 325 495 337 516 q 313 460 313 474 q 315 443 313 449 q 419 383 336 383 q 476 390 443 383 q 587 450 544 405 q 637 560 629 495 q 642 621 642 591 q 543 832 642 760 q 308 906 441 903 q 231 900 287 906 l 232 78 q 247 52 232 56 q 303 44 261 49 q 349 26 346 39 q 325 0 349 0 q 307 1 320 0 q 286 1 294 1 q 52 -1 199 -1 q 48 7 48 1 q 57 27 48 16 q 72 38 65 38 q 127 49 102 38 q 153 87 153 61 q 153 393 153 143 q 154 647 154 643 q 154 846 154 651 q 143 876 154 868 q 114 887 133 885 q 65 900 74 895 q 46 924 56 904 q 145 925 76 925 q 254 926 214 925 q 322 928 278 928 q 490 912 415 928 q 621 856 565 897 q 707 743 678 815 z "},"Q":{"ha":867,"x_min":36,"x_max":828,"o":"m 828 -74 q 805 -140 828 -114 q 739 -192 782 -166 q 649 -217 695 -217 q 511 -162 578 -217 q 455 -92 472 -131 q 431 1 438 -53 q 415 1 426 1 q 400 0 405 0 q 105 160 201 0 q 36 425 36 279 q 67 612 36 520 q 154 777 97 705 q 238 856 193 823 q 333 908 282 890 q 440 926 385 926 q 526 915 488 926 q 758 718 685 874 q 803 510 803 622 q 782 345 803 431 q 526 26 725 103 q 525 -17 526 -1 q 546 -99 525 -68 q 667 -168 592 -168 q 715 -160 689 -168 q 777 -127 755 -145 q 799 -76 799 -109 q 790 -53 797 -62 q 768 -32 783 -43 q 749 -17 752 -20 q 738 -12 747 -16 q 726 -1 728 -8 q 747 11 731 11 q 782 1 755 11 q 828 -74 820 -12 m 686 679 q 407 865 558 865 q 374 863 396 865 q 154 721 227 849 q 89 483 89 605 q 117 328 89 404 q 199 188 145 252 q 396 75 294 75 q 432 79 413 75 q 437 139 437 118 q 392 237 437 208 q 327 251 370 251 q 290 254 304 251 q 288 257 288 254 q 292 265 288 260 q 301 271 296 270 q 380 280 345 280 q 490 236 455 280 q 509 197 504 219 q 516 141 514 175 q 522 89 518 107 q 674 182 612 100 q 764 439 764 299 q 686 679 764 567 z "},"R":{"ha":806,"x_min":38,"x_max":771,"o":"m 768 67 q 703 -3 751 6 q 665 -5 678 -5 q 581 28 610 -5 q 502 153 536 77 q 438 297 468 229 q 366 414 409 364 q 246 486 322 463 q 270 503 249 503 q 285 502 274 503 q 301 500 296 500 q 432 512 381 500 q 521 567 483 524 q 567 682 567 614 q 557 744 567 709 q 496 837 542 802 q 390 885 450 872 q 289 892 361 892 q 233 891 255 892 q 201 889 212 889 q 210 74 201 335 q 217 45 210 59 q 235 26 224 31 q 254 23 241 25 q 274 18 267 22 q 285 5 282 14 q 174 -1 241 -1 q 113 -1 156 -1 q 38 0 70 0 q 60 15 42 12 q 93 22 77 19 q 113 38 109 25 q 129 194 129 96 l 129 283 l 129 851 q 119 875 129 866 q 90 893 109 884 q 65 897 81 896 q 44 899 50 898 q 40 904 40 899 q 48 912 40 910 q 165 916 86 912 q 293 920 245 920 q 433 908 371 920 q 547 862 495 896 q 633 768 599 829 q 647 706 647 740 q 618 583 647 652 q 374 461 548 489 q 468 393 446 412 q 528 317 507 360 q 572 208 550 274 q 612 102 593 142 q 669 28 631 62 q 690 19 681 19 q 750 61 724 19 q 757 89 757 73 q 728 158 757 123 q 735 161 730 160 q 743 162 741 161 q 771 92 771 129 q 768 67 771 75 z "},"S":{"ha":679,"x_min":29,"x_max":650,"o":"m 649 296 q 650 265 650 286 q 532 60 650 135 q 325 -3 442 -3 q 129 57 213 -3 q 29 222 29 125 q 32 254 29 232 q 144 401 53 385 q 178 403 156 403 q 254 374 230 403 q 223 367 245 368 q 190 362 200 367 q 101 204 101 325 q 221 52 107 94 q 346 25 286 25 q 482 71 420 25 q 579 228 579 144 q 576 257 579 237 q 519 381 563 335 q 401 461 474 428 q 264 523 328 494 q 160 588 200 552 q 105 715 107 644 q 114 772 105 744 q 167 859 129 827 q 271 915 205 891 q 328 925 298 925 q 372 921 350 925 q 434 908 395 917 q 485 896 472 898 q 515 893 497 893 q 557 901 542 893 q 579 893 579 901 q 582 823 580 870 q 585 753 585 775 q 582 703 585 733 q 576 699 582 699 q 557 718 562 699 q 508 819 546 772 q 418 882 469 866 q 339 895 369 895 q 229 854 275 895 q 165 742 165 793 q 180 696 165 715 q 309 597 223 639 q 466 523 396 555 q 587 439 537 490 q 649 296 637 387 z "},"T":{"ha":868,"x_min":43,"x_max":829,"o":"m 825 754 q 811 799 823 761 q 786 853 799 838 q 744 877 773 868 q 593 890 687 890 q 526 890 563 890 q 467 889 490 889 l 467 82 q 475 58 468 65 q 495 48 482 52 q 515 40 509 45 q 544 33 525 34 q 573 28 563 33 q 585 3 583 24 q 500 -1 545 -1 l 296 -1 q 292 7 292 3 q 307 33 292 14 q 345 45 316 44 q 386 50 374 46 q 397 75 397 53 l 397 889 q 359 890 389 889 q 299 890 329 890 q 89 849 118 890 q 71 794 85 843 q 43 739 57 744 q 45 832 45 765 q 47 926 46 900 q 821 925 550 926 q 829 833 829 879 q 827 792 829 819 q 825 754 826 766 z "},"U":{"ha":946,"x_min":43,"x_max":903,"o":"m 903 901 q 848 877 868 889 q 821 842 829 866 q 800 573 802 757 q 792 300 799 389 q 736 124 785 210 q 574 10 688 38 q 440 -7 505 -7 q 168 133 258 -7 q 138 228 149 162 q 124 379 127 294 q 121 572 121 464 l 121 715 q 118 804 121 755 q 114 877 116 852 q 105 889 114 886 q 79 893 97 892 q 52 898 61 895 q 43 914 43 902 l 60 925 l 282 926 q 299 915 299 926 q 294 907 299 911 q 257 897 285 898 q 217 892 228 895 q 205 871 205 889 q 203 579 204 769 q 201 260 201 389 q 252 124 202 180 q 380 44 301 67 q 489 26 443 26 q 643 82 572 26 q 737 201 713 135 q 765 374 761 267 q 767 485 767 407 q 764 679 767 583 q 760 818 762 774 q 743 863 760 841 q 706 892 727 885 q 657 907 665 892 q 682 924 659 924 q 745 924 704 924 q 807 925 786 925 q 900 921 868 925 l 903 901 z "},"V":{"ha":917,"x_min":42,"x_max":871,"o":"m 871 925 q 864 906 871 911 q 843 891 858 900 q 822 875 828 882 q 777 821 793 850 q 743 743 761 792 q 712 672 724 694 q 465 18 595 399 q 454 1 462 8 q 437 -5 445 -5 q 424 4 427 -5 q 351 209 391 94 q 273 430 310 323 q 192 661 236 537 q 124 857 149 786 q 106 876 118 870 q 76 884 94 881 q 50 892 59 887 q 42 910 42 897 q 54 919 45 913 q 74 926 62 924 q 184 925 111 925 q 293 924 257 925 q 296 915 293 921 q 299 906 299 910 q 264 893 289 898 q 229 885 239 889 q 218 865 218 880 q 258 716 224 824 q 334 491 293 608 q 411 273 375 373 q 461 135 447 173 q 522 290 479 181 q 629 566 565 399 q 706 764 694 733 q 717 820 717 796 q 707 860 717 840 q 696 878 704 871 q 680 888 689 885 q 659 892 670 891 q 637 895 648 893 q 635 903 635 903 q 640 912 635 909 q 657 917 645 915 q 671 920 670 919 q 750 925 704 925 q 790 924 763 925 q 832 924 818 924 q 851 924 838 924 q 871 925 864 925 z "},"W":{"ha":1262,"x_min":60,"x_max":1235,"o":"m 1226 907 q 1129 825 1155 889 q 1052 620 1092 729 q 969 398 1011 512 q 892 189 927 284 q 826 15 856 93 q 808 -1 820 -1 q 801 4 803 -1 q 736 160 763 92 q 704 251 724 191 q 668 354 684 311 q 635 435 652 396 q 612 376 628 416 q 568 264 596 335 q 515 128 540 193 q 468 8 489 63 q 451 -3 465 0 q 443 1 445 -3 q 363 206 404 99 q 286 422 323 314 q 202 667 248 531 q 135 864 155 804 q 121 884 131 878 q 93 895 110 890 q 68 906 76 899 q 60 926 60 912 l 299 926 q 303 922 301 924 q 307 917 306 920 q 308 910 308 915 q 275 899 299 903 q 238 890 250 895 q 227 869 227 885 q 277 698 248 785 q 347 493 305 611 q 418 295 389 375 q 472 132 447 214 q 514 224 496 179 q 564 359 531 269 q 614 492 596 449 q 573 594 601 530 q 530 705 545 657 q 512 814 515 753 q 558 915 512 873 q 640 947 594 947 q 721 928 673 947 q 771 877 760 911 q 779 825 779 851 q 764 739 779 784 q 716 623 749 694 q 681 543 684 551 q 832 149 750 346 q 900 326 871 252 q 960 486 928 399 q 1020 658 992 572 q 1071 826 1049 744 q 1040 887 1071 887 q 987 900 1018 889 q 981 914 981 904 q 995 926 981 925 l 1213 926 q 1235 914 1235 926 q 1226 907 1235 907 m 712 736 q 730 821 730 804 q 704 882 730 856 q 650 907 679 907 q 629 903 639 907 q 589 836 589 890 q 592 810 589 827 q 660 596 622 668 q 712 736 698 683 z "},"X":{"ha":915,"x_min":31,"x_max":865,"o":"m 863 24 q 865 15 865 18 q 860 6 865 9 q 842 -1 854 2 q 829 -4 830 -3 q 606 -1 757 -1 q 594 8 594 -1 q 603 22 594 14 q 635 30 606 24 q 665 46 665 36 q 663 54 665 49 q 615 142 643 96 q 537 259 587 187 q 467 361 487 331 q 428 426 448 390 q 395 377 423 419 q 324 270 367 335 q 254 165 281 205 q 215 107 228 125 q 207 82 207 96 q 235 43 207 65 q 263 35 243 37 q 292 27 282 33 q 301 -1 301 21 q 225 -3 275 -3 q 170 -2 205 -3 q 99 0 135 -1 q 43 1 64 1 q 35 8 39 2 q 31 19 31 15 q 40 29 31 27 q 168 118 114 39 l 407 463 l 143 863 q 116 881 134 877 q 78 887 99 884 q 48 903 58 891 q 68 922 55 919 q 151 923 96 922 q 232 924 205 924 q 317 921 261 924 q 321 910 321 917 q 301 895 321 895 q 247 868 247 895 q 256 846 247 858 l 458 524 q 529 622 473 546 q 616 746 586 699 q 663 843 646 794 q 622 886 663 874 q 585 897 587 886 q 598 922 585 922 q 665 923 621 922 q 732 924 710 924 q 804 921 781 924 l 801 899 q 755 881 767 888 q 730 853 744 874 q 617 686 679 772 q 479 498 555 600 q 516 441 491 480 q 587 332 542 401 q 682 186 632 262 q 746 87 731 110 q 790 44 763 56 q 863 24 817 32 z "},"Y":{"ha":912,"x_min":42,"x_max":868,"o":"m 868 883 q 857 857 868 864 q 825 846 846 850 q 796 835 803 841 q 629 659 695 760 q 532 439 563 557 q 500 194 500 322 q 508 58 500 127 q 536 33 512 38 q 582 25 559 29 q 607 1 605 21 q 542 -1 585 -1 q 485 0 526 -1 q 415 1 445 1 q 360 -1 398 1 q 310 17 313 -1 q 354 29 314 29 q 400 35 383 29 q 422 61 418 40 q 433 196 433 131 q 416 367 433 281 q 367 534 399 453 q 290 689 335 614 q 189 832 244 764 q 139 856 170 856 q 105 846 121 856 q 90 830 95 840 q 77 798 85 820 q 65 768 70 777 q 52 760 60 760 q 42 763 50 760 q 53 841 43 807 q 90 899 62 874 q 162 932 129 932 q 197 921 182 932 q 326 785 281 863 q 440 551 372 707 q 459 500 447 535 q 483 443 471 466 q 545 586 513 513 q 612 718 577 658 q 695 832 646 779 q 808 920 745 885 q 821 922 817 922 q 851 911 836 922 q 868 883 865 899 z "},"Z":{"ha":682,"x_min":31,"x_max":654,"o":"m 647 217 q 654 170 654 191 q 630 84 654 124 q 565 21 606 45 q 432 -15 504 -15 q 382 -12 406 -15 q 307 1 358 -9 q 227 15 256 11 q 165 19 197 19 q 54 -3 104 19 q 46 -5 49 -5 q 41 -4 43 -5 q 36 1 38 -2 q 31 8 34 4 q 101 160 39 40 q 252 442 163 280 q 400 712 340 604 q 488 868 460 820 q 474 890 488 890 q 323 889 424 889 q 132 864 200 889 q 93 826 100 852 q 81 738 86 799 q 71 726 81 726 q 61 738 61 726 q 60 789 61 754 q 58 857 58 823 q 57 910 57 891 q 74 921 57 921 q 349 924 240 922 q 576 929 458 925 q 596 912 596 929 q 585 887 596 901 q 488 713 559 842 q 350 465 416 584 q 240 268 284 347 q 142 85 197 189 q 193 89 166 89 q 272 83 235 89 q 384 63 309 77 q 498 46 459 49 q 612 114 585 46 q 621 156 621 136 q 612 192 621 178 q 585 222 603 210 q 547 235 567 235 q 525 229 534 235 q 517 224 521 227 q 510 220 513 222 q 502 218 506 218 q 494 221 500 218 q 489 235 489 227 q 510 271 489 250 q 563 293 534 293 q 585 289 574 293 q 647 217 632 269 z "},"\\":{"ha":463,"x_min":28,"x_max":418,"o":"m 418 1 q 384 51 405 15 q 334 142 363 86 q 270 262 304 197 q 221 354 236 327 q 28 715 100 572 l 78 715 q 271 356 205 474 q 342 228 309 288 q 393 135 374 169 q 418 1 418 67 z "},"a":{"ha":651,"x_min":31,"x_max":646,"o":"m 646 161 q 623 63 641 104 q 560 11 604 22 q 524 5 533 5 q 451 36 484 5 q 422 82 430 58 q 386 43 397 53 q 351 24 376 34 q 239 -3 293 -3 q 107 40 169 -3 q 31 201 31 94 q 35 253 31 228 q 58 331 42 297 q 101 392 75 366 q 168 440 128 419 q 282 469 225 469 q 415 432 349 469 q 463 463 428 460 q 475 461 468 463 q 486 460 483 460 q 484 378 486 431 q 482 286 482 325 q 494 74 482 165 q 547 47 500 47 q 587 71 574 53 q 613 123 600 90 q 635 168 625 156 q 641 165 638 168 q 646 161 644 162 m 413 388 q 299 443 373 443 q 221 424 256 443 q 138 345 163 394 q 114 225 114 295 q 213 46 119 84 q 267 35 242 35 q 411 111 345 35 q 409 194 411 139 q 407 276 408 249 q 413 388 407 337 z "},"b":{"ha":496,"x_min":-29,"x_max":464,"o":"m 435 371 q 464 247 464 310 q 422 97 464 168 q 227 -5 361 -3 q 115 25 168 -5 q 54 96 63 55 q 33 364 33 191 q 34 422 33 384 q 36 493 35 460 q 38 560 37 526 q 39 659 38 597 q 40 747 40 721 q 38 865 40 825 q 14 882 36 882 l -5 882 q -29 904 -29 882 q 72 924 18 924 q 90 921 81 923 q 104 918 99 919 q 104 730 104 803 q 103 564 103 657 q 102 385 102 470 q 101 208 102 300 q 190 47 104 85 q 250 35 220 35 q 335 62 298 35 q 390 118 373 89 q 410 189 408 147 q 391 304 410 259 q 329 378 373 348 q 262 396 303 396 l 229 396 q 200 379 217 394 q 174 364 182 364 q 157 372 165 364 q 196 430 166 408 q 265 457 225 453 q 293 458 275 458 q 435 371 391 458 z "},"c":{"ha":493,"x_min":19,"x_max":471,"o":"m 471 161 q 441 87 468 124 q 379 31 414 51 q 243 -8 313 -8 q 108 38 166 -8 q 19 211 19 107 q 33 289 19 244 q 111 400 56 355 q 235 460 166 446 q 264 463 254 463 q 324 454 286 463 q 382 446 362 446 q 410 449 400 446 q 424 367 424 408 q 417 315 424 343 q 401 331 406 320 q 391 358 396 342 q 376 383 385 375 q 328 419 351 408 q 271 432 304 430 q 182 407 215 432 q 124 335 148 382 q 99 229 99 281 q 149 97 99 156 q 280 29 206 29 q 333 39 303 29 q 383 66 363 48 q 430 121 404 83 q 460 161 457 158 l 471 161 z "},"d":{"ha":645,"x_min":29,"x_max":629,"o":"m 629 158 q 557 14 629 41 q 512 5 533 5 q 468 15 491 5 q 410 78 430 34 q 225 1 331 1 q 164 10 193 1 q 80 62 116 24 q 33 149 43 100 q 29 204 29 178 q 126 413 29 338 q 271 464 188 464 q 374 437 329 464 q 396 443 390 437 l 394 769 q 357 806 393 790 q 313 815 319 806 q 320 828 313 825 q 338 833 327 832 q 362 836 350 834 q 422 844 401 844 q 469 824 459 844 l 469 140 q 474 86 469 108 q 498 52 479 64 q 535 40 518 40 q 563 47 546 40 q 593 73 584 57 q 609 118 603 90 q 621 158 616 147 l 629 158 m 399 104 q 401 194 401 135 q 400 269 401 219 q 399 345 399 319 l 399 380 q 299 440 369 440 q 199 413 251 440 q 101 240 101 359 q 107 180 101 209 q 210 43 129 76 q 260 33 233 33 q 399 104 322 33 z "},"e":{"ha":498,"x_min":25,"x_max":471,"o":"m 408 32 q 254 -11 327 -11 q 93 58 163 -11 q 25 219 25 132 q 32 285 25 255 q 75 376 43 338 q 157 437 108 415 q 262 463 205 458 q 294 464 274 464 q 457 365 426 464 q 463 327 463 347 q 424 240 463 279 q 285 190 376 190 q 158 218 218 190 q 153 225 153 222 q 158 229 153 229 q 264 215 221 215 q 370 247 331 215 q 406 325 406 279 q 399 365 406 342 q 335 428 386 408 q 279 437 308 437 q 174 396 223 437 q 104 251 106 340 q 110 197 104 234 q 155 89 122 133 q 239 33 188 44 q 279 29 259 29 q 471 133 377 29 q 452 77 469 109 q 408 32 435 45 z "},"f":{"ha":335,"x_min":24,"x_max":437,"o":"m 431 815 q 354 767 410 767 q 368 805 354 782 q 382 842 382 827 q 371 872 382 856 q 329 896 352 894 q 308 890 318 896 q 207 770 232 845 q 180 574 182 694 q 181 521 180 555 q 182 458 182 488 q 183 445 182 453 q 183 432 183 437 q 235 433 198 432 q 288 435 272 435 q 333 422 330 435 q 188 407 329 407 q 186 251 186 407 q 190 60 186 131 q 199 45 191 50 q 223 34 207 40 q 249 22 240 28 q 257 4 257 16 q 161 3 222 4 q 65 1 100 1 q 70 15 65 11 q 79 22 75 19 q 92 19 87 19 q 112 29 104 19 q 121 52 121 39 l 121 301 q 118 408 121 372 q 95 408 111 408 q 71 407 79 407 q 28 413 38 407 q 24 419 24 415 q 26 429 24 420 q 73 433 30 432 q 118 433 116 433 q 119 493 119 453 q 132 675 119 597 q 191 820 145 754 q 328 925 237 887 q 356 929 337 929 q 413 904 388 929 q 437 849 437 879 q 431 815 437 834 z "},"g":{"ha":540,"x_min":26,"x_max":529,"o":"m 529 435 q 506 424 524 429 q 480 416 489 420 q 468 399 471 412 q 474 234 468 341 q 479 61 479 126 q 475 -44 479 12 q 417 -223 467 -149 q 275 -342 367 -298 q 182 -371 214 -371 q 157 -368 172 -371 l 157 -357 q 274 -302 220 -339 q 363 -211 328 -266 q 403 -92 398 -157 q 408 -34 403 -69 q 413 7 412 1 q 404 60 413 30 q 373 39 398 56 q 328 14 348 21 q 229 -3 282 -3 q 104 36 151 -3 q 26 208 26 99 q 32 262 26 227 q 106 398 48 347 q 249 463 163 450 q 393 426 329 463 q 451 454 412 454 q 479 453 460 454 q 507 451 497 451 q 522 447 514 451 q 529 435 529 443 m 401 370 q 286 432 372 432 q 242 428 265 432 q 159 381 193 419 q 113 289 124 344 q 104 215 104 250 q 165 65 104 120 q 267 29 208 29 q 325 40 297 29 q 372 73 351 50 q 400 124 393 96 l 401 370 z "},"h":{"ha":665,"x_min":1,"x_max":657,"o":"m 657 157 q 576 4 657 46 q 539 -5 554 -5 q 476 24 505 -5 q 440 89 450 51 q 431 176 431 126 q 431 222 431 192 q 432 268 432 253 q 406 401 432 354 q 356 429 391 429 q 315 417 335 429 q 198 278 242 365 q 154 96 154 190 q 157 46 154 62 q 184 30 159 35 q 208 15 208 24 q 203 1 208 8 q 28 0 139 0 q 25 7 25 0 q 24 15 24 15 q 60 26 51 22 q 76 44 68 30 q 75 499 76 322 q 70 868 74 677 q 53 887 69 884 q 20 893 37 890 q 1 910 3 896 q 135 925 4 925 q 146 917 140 925 q 153 899 153 909 q 151 549 153 738 q 147 251 149 360 q 186 314 160 272 q 237 386 212 356 q 294 436 261 416 q 364 458 327 457 q 444 441 410 458 q 486 386 478 424 q 498 279 497 341 q 500 158 499 217 q 512 57 502 98 q 549 38 518 38 q 574 40 557 38 q 612 62 600 44 q 635 118 625 80 q 646 157 646 156 l 657 157 z "},"i":{"ha":329,"x_min":-4,"x_max":319,"o":"m 140 728 q 144 708 144 720 q 108 657 144 668 q 93 654 97 654 q 60 666 75 654 q 39 696 44 677 q 36 714 36 708 q 61 757 36 741 q 87 764 72 764 q 140 728 126 764 m 314 190 q 319 157 319 174 q 310 107 319 140 q 232 10 286 30 q 185 1 210 1 q 108 33 141 1 q 65 146 65 80 l 65 411 q 48 430 65 428 q 14 433 31 432 q -4 451 -4 435 q 67 462 19 458 q 125 468 115 466 q 140 443 140 467 q 143 96 140 233 q 190 38 143 54 q 205 35 201 35 q 286 104 250 35 q 300 148 294 118 q 314 190 306 178 z "},"j":{"ha":215,"x_min":-85,"x_max":176,"o":"m 167 728 q 170 711 170 717 q 135 663 170 674 q 117 660 129 660 q 83 671 97 660 q 64 700 68 681 q 75 749 64 735 q 111 764 89 764 q 146 754 130 764 q 167 728 163 744 m 167 451 q 171 322 168 416 q 175 185 174 228 q 176 87 176 143 q 151 -215 176 -93 q 106 -308 139 -271 q 24 -346 73 -344 q -31 -340 -11 -346 q -68 -313 -52 -333 q -85 -262 -85 -289 q -79 -227 -85 -250 q -59 -196 -74 -208 q -28 -183 -45 -183 q -10 -188 -18 -183 q -4 -203 -4 -193 q -12 -237 -4 -213 q -21 -274 -21 -260 q -11 -301 -21 -290 q 24 -318 1 -318 q 47 -311 36 -318 q 87 -257 78 -290 q 99 -172 96 -225 q 99 -41 99 -132 q 100 99 100 50 q 93 411 100 298 q 75 433 91 429 q 36 438 60 437 q 13 446 13 439 q 24 463 13 451 q 118 465 93 465 q 136 464 124 465 q 153 463 147 463 l 167 451 z "},"k":{"ha":551,"x_min":-13,"x_max":532,"o":"m 532 140 q 504 38 532 67 q 425 -1 469 -1 q 393 4 408 -1 q 339 41 357 16 q 294 118 321 65 q 241 195 267 171 q 167 219 214 219 q 138 193 138 219 q 138 116 138 162 q 139 46 139 70 q 148 33 139 36 q 175 28 157 30 q 199 24 192 27 q 168 1 199 1 q 99 0 144 0 q 14 1 44 0 q 23 15 15 14 q 44 19 32 17 q 62 29 57 21 q 72 60 72 44 l 72 553 q 68 878 72 721 q 50 892 67 888 q 13 898 33 895 q -13 914 -7 902 q 121 926 11 926 q 126 868 126 926 q 131 670 130 759 q 132 463 131 582 q 135 261 133 344 q 181 282 161 266 q 227 331 201 297 q 264 376 254 365 q 333 442 307 422 q 396 463 360 463 q 440 454 416 463 q 465 435 456 449 q 474 404 474 420 q 467 376 474 390 q 436 350 455 350 q 423 369 428 353 q 412 397 417 385 q 396 413 408 410 q 327 390 359 413 q 256 325 296 368 q 204 271 217 282 q 196 260 196 262 q 230 247 196 252 q 271 239 264 242 q 334 187 312 221 q 384 107 356 153 q 447 38 412 61 q 458 35 451 35 q 506 79 483 35 q 513 107 510 89 q 518 133 515 125 q 532 140 521 140 z "},"l":{"ha":289,"x_min":-33,"x_max":294,"o":"m 294 182 q 265 52 294 94 q 174 -3 228 -3 q 143 3 158 -3 q 67 72 85 22 q 48 199 48 121 l 48 856 q 32 881 48 874 q -9 889 16 887 q -33 896 -33 891 q -13 912 -33 901 q 38 921 6 921 q 75 919 52 921 q 110 918 97 918 q 110 684 110 790 q 110 416 110 577 q 111 126 111 255 q 168 40 114 55 q 185 38 179 38 q 250 74 214 38 q 269 104 264 87 q 279 145 273 121 q 294 182 285 170 z "},"m":{"ha":1044,"x_min":13,"x_max":1018,"o":"m 1015 142 q 1018 119 1018 125 q 981 28 1018 73 q 882 -21 947 -12 q 782 70 809 -21 q 771 162 771 112 q 774 230 771 186 q 778 299 778 273 q 751 415 778 366 q 714 436 742 436 q 676 426 695 436 q 578 337 632 401 q 515 215 525 273 q 508 44 508 154 q 514 32 508 36 q 531 25 519 29 q 551 16 544 21 q 560 1 558 12 q 432 -1 476 -1 q 378 0 394 -1 q 387 14 379 9 q 410 23 396 19 q 431 30 425 26 q 437 43 437 34 l 437 178 q 424 404 437 320 q 405 427 420 417 q 371 437 389 436 q 343 431 357 437 q 229 338 276 396 q 164 208 181 280 q 157 139 157 182 q 158 104 157 128 q 158 67 158 80 q 186 24 158 32 q 213 14 208 24 q 204 3 213 5 q 178 -1 196 1 q 36 1 76 -1 q 25 19 25 1 q 48 30 31 25 q 75 41 66 35 q 85 62 85 47 l 86 382 q 64 415 86 405 q 38 422 55 420 q 13 431 21 424 q 26 447 13 447 l 150 447 q 156 353 155 411 q 160 258 156 295 q 236 384 188 327 q 351 460 283 441 q 392 465 370 465 q 460 440 431 465 q 491 394 484 419 q 502 327 498 368 q 514 264 506 285 q 724 468 622 465 q 842 385 814 468 q 858 283 858 337 q 853 210 858 258 q 849 136 849 162 q 858 56 849 96 q 896 21 864 31 q 965 52 932 21 q 984 80 978 61 q 995 116 990 99 q 1013 142 1001 134 l 1015 142 z "},"n":{"ha":683,"x_min":0,"x_max":671,"o":"m 671 135 q 586 5 671 57 q 550 -7 570 -7 q 498 17 525 -7 q 440 175 440 75 q 442 230 440 194 q 445 290 445 266 q 432 382 445 343 q 409 419 426 404 q 372 435 393 435 q 262 376 312 426 q 183 265 213 326 q 154 170 154 203 l 154 48 q 178 28 154 36 q 201 8 201 20 q 199 -1 201 7 q 32 1 104 -1 q 15 10 15 1 q 38 23 18 17 q 67 33 58 28 q 76 53 76 38 q 77 223 77 113 q 78 399 78 333 q 67 412 78 408 q 36 422 57 417 q 7 429 14 427 q 0 437 0 432 q 11 451 0 444 q 83 461 25 461 q 158 453 130 461 q 157 417 158 431 q 155 385 156 404 q 153 349 154 366 q 153 321 153 332 q 157 256 153 289 q 214 351 183 300 q 283 434 244 401 q 376 467 322 467 q 432 461 413 465 q 468 439 450 457 q 524 301 524 383 q 517 217 524 272 q 510 131 510 162 q 511 100 510 111 q 558 38 516 50 q 575 35 568 35 q 671 135 621 35 z "},"o":{"ha":565,"x_min":19,"x_max":542,"o":"m 532 182 q 469 71 516 117 q 351 8 422 26 q 279 0 315 0 q 90 65 178 0 q 19 213 19 123 q 31 282 19 243 q 79 371 46 333 q 158 432 112 409 q 262 463 205 455 q 303 465 290 465 q 494 382 417 465 q 542 250 542 327 q 532 182 542 223 m 454 343 q 357 421 413 405 q 280 433 311 433 q 149 357 199 433 q 110 222 110 297 q 121 140 110 183 q 174 66 136 95 q 267 35 213 37 q 281 34 272 35 q 296 33 291 33 q 432 93 386 33 q 486 237 486 165 q 454 343 486 293 z "},"p":{"ha":536,"x_min":-8,"x_max":515,"o":"m 488 372 q 515 261 515 320 q 455 103 515 174 q 262 3 369 3 q 199 11 231 3 q 172 21 188 14 q 143 32 157 28 q 140 -110 140 -14 q 141 -218 140 -147 q 142 -319 142 -289 q 148 -329 142 -327 q 170 -333 155 -331 q 193 -338 185 -335 q 201 -350 201 -342 q 196 -365 201 -354 q 13 -367 74 -365 q 19 -353 13 -357 q 38 -346 26 -349 q 57 -338 50 -343 q 64 -323 63 -334 q 65 16 64 -195 q 67 392 67 227 q 55 411 65 406 q 26 416 45 415 q -1 419 7 417 q -8 431 -8 427 q 14 445 -8 438 q 56 449 26 445 q 99 453 85 453 q 146 415 139 453 q 313 467 219 467 q 415 443 369 467 q 488 372 462 420 m 414 150 q 433 262 433 210 q 382 393 433 348 q 276 431 338 431 q 199 412 235 431 q 144 360 163 394 l 144 79 q 251 28 198 28 q 285 32 268 28 q 414 150 373 54 z "},"q":{"ha":555,"x_min":25,"x_max":529,"o":"m 529 -354 q 500 -365 529 -365 q 477 -365 496 -365 q 443 -364 459 -364 q 409 -368 428 -365 q 378 -371 391 -371 q 333 -367 361 -371 q 346 -353 337 -357 q 371 -347 355 -350 q 395 -341 388 -344 q 401 -327 401 -337 q 399 -42 399 -204 q 400 14 399 -23 q 401 68 401 51 q 316 19 371 38 q 210 0 261 0 q 140 11 166 0 q 56 82 86 33 q 25 196 26 131 q 59 326 25 266 q 150 422 93 387 q 279 463 208 463 q 376 435 334 463 q 385 432 382 432 q 401 442 392 432 q 418 453 411 453 q 457 455 436 453 q 488 457 477 457 q 522 446 509 457 q 516 428 522 434 q 494 416 509 423 q 472 401 479 409 q 465 379 465 394 q 467 193 467 287 q 468 28 468 100 q 470 -153 469 -43 q 474 -318 472 -263 q 482 -336 474 -329 q 503 -346 490 -342 q 529 -354 515 -350 m 393 374 q 365 419 392 405 q 297 433 338 433 q 237 426 267 433 q 165 382 191 415 q 122 294 138 349 q 110 211 110 255 q 162 67 110 123 q 262 29 198 29 q 307 35 279 29 q 390 96 387 60 q 396 218 396 135 q 393 374 396 271 z "},"r":{"ha":469,"x_min":-1,"x_max":447,"o":"m 443 349 q 396 301 430 311 q 371 297 384 297 q 343 307 355 297 q 355 329 345 311 q 370 357 366 347 q 375 378 375 368 q 371 396 375 386 q 329 429 352 426 q 249 404 282 429 q 179 335 215 379 q 138 179 138 271 q 165 52 138 103 q 193 33 176 37 q 237 29 211 29 q 279 53 263 36 q 308 95 296 71 q 331 143 319 119 l 343 143 q 318 60 343 98 q 247 4 293 22 q 203 -4 224 -4 q 107 40 151 -4 q 80 85 86 62 q 70 154 74 109 q 67 225 68 183 q 66 305 66 267 q 65 397 66 343 q 57 408 65 406 q 33 412 49 411 q 7 417 16 413 q -1 432 -1 420 q 90 443 69 442 q 135 439 113 443 q 144 399 144 428 q 144 367 144 390 q 143 327 143 344 q 238 425 185 383 q 343 468 291 468 q 424 431 389 468 q 447 375 447 399 q 443 349 447 363 z "},"s":{"ha":407,"x_min":15,"x_max":389,"o":"m 380 201 q 389 157 389 181 q 337 47 387 90 q 193 -3 277 -3 q 113 8 148 -3 q 58 32 77 19 q 26 75 40 45 q 15 118 15 97 q 38 170 15 147 q 68 189 61 189 q 78 185 74 189 q 90 158 90 172 q 83 128 90 148 q 76 97 76 108 q 87 70 76 80 q 192 22 129 22 q 232 26 211 22 q 297 60 271 36 q 327 121 323 85 q 282 201 327 183 q 208 217 260 210 q 123 233 156 224 q 67 265 91 241 q 40 335 43 289 q 97 435 40 399 q 213 463 148 463 q 346 447 246 463 q 354 394 354 422 q 349 332 354 373 q 320 365 338 337 q 294 404 303 392 q 262 426 284 416 q 208 437 234 437 q 138 421 175 437 q 97 358 97 399 q 101 335 97 348 q 212 292 132 306 q 326 266 291 278 q 380 201 360 254 z "},"t":{"ha":396,"x_min":-4,"x_max":379,"o":"m 368 164 q 379 133 379 151 q 368 93 379 113 q 262 4 339 26 q 218 -1 242 -1 q 142 26 177 -1 q 96 119 96 64 q 95 275 96 184 q 95 413 95 366 l 29 413 q -4 424 5 413 q 36 444 6 434 q 79 469 66 454 q 143 706 137 540 q 165 725 143 725 q 179 717 179 725 q 174 586 176 680 q 172 437 173 492 l 351 437 l 351 415 l 171 415 q 170 341 171 392 q 170 264 170 290 q 183 72 170 115 q 243 38 194 38 q 278 42 261 38 q 333 78 316 48 q 368 164 350 109 z "},"u":{"ha":665,"x_min":8,"x_max":653,"o":"m 649 176 q 653 147 653 158 q 643 113 653 132 q 522 10 597 10 q 465 25 482 10 q 433 78 447 40 q 413 129 419 117 q 217 0 326 0 q 151 12 174 4 q 113 43 129 19 q 85 183 85 90 q 85 228 85 198 q 86 274 86 258 q 85 327 86 308 l 85 362 q 74 407 85 390 q 46 420 67 417 q 17 428 25 424 q 8 449 8 431 q 154 463 52 463 q 162 447 162 463 q 176 70 162 135 q 254 36 186 36 q 368 94 323 47 q 413 207 413 141 q 410 413 413 337 q 401 427 410 424 q 375 431 393 429 q 347 437 357 432 q 337 457 338 443 q 387 463 348 457 q 445 468 425 468 q 493 443 490 468 q 497 357 497 418 q 496 289 497 336 q 496 217 496 241 q 507 65 496 119 q 535 47 511 47 q 579 61 556 47 q 611 92 600 74 q 633 139 622 109 q 649 176 644 168 z "},"v":{"ha":450,"x_min":21,"x_max":449,"o":"m 429 471 q 449 370 449 420 q 432 278 449 322 q 395 202 415 234 q 333 112 374 170 q 272 21 292 55 q 215 1 260 1 q 182 65 204 35 q 125 136 161 96 q 71 201 89 177 q 21 350 21 276 q 47 454 21 403 q 53 457 50 455 q 60 461 57 460 q 67 458 64 461 q 72 442 72 451 q 67 420 72 436 q 62 393 62 405 q 91 307 70 348 q 141 232 113 266 q 212 151 169 198 q 275 76 255 103 q 397 342 397 208 q 388 413 397 379 q 321 475 378 456 q 310 478 313 478 q 279 469 297 478 q 256 460 260 460 q 244 471 246 460 q 264 511 244 495 q 306 532 283 527 q 333 536 318 536 q 391 518 365 536 q 429 471 418 500 z "},"w":{"ha":701,"x_min":10,"x_max":688,"o":"m 646 529 q 688 404 688 472 q 679 337 688 372 q 654 262 670 302 q 624 182 639 221 q 594 120 611 150 q 551 52 577 90 q 524 13 525 15 q 496 0 514 0 q 480 8 485 0 q 444 95 464 55 q 397 180 424 135 q 346 267 370 225 q 321 223 332 248 q 297 164 310 197 q 270 110 284 132 q 247 63 261 96 q 221 14 233 30 q 186 -1 208 -1 q 170 1 180 -1 q 102 138 159 46 q 28 263 46 230 q 10 345 10 296 q 70 460 10 408 l 79 460 q 62 378 62 391 q 70 340 62 355 q 112 258 91 294 q 167 169 133 221 q 213 96 200 117 q 232 105 225 98 q 246 126 239 112 q 257 147 253 141 q 298 235 287 194 q 322 349 309 276 q 349 457 335 421 l 362 457 q 386 363 369 409 q 426 273 402 317 q 490 164 449 229 q 535 92 530 99 q 588 174 572 142 q 636 371 636 268 q 632 445 636 407 q 560 503 625 490 q 519 495 541 503 q 486 488 497 488 q 524 545 486 527 q 582 558 552 558 q 646 529 626 558 z "},"x":{"ha":610,"x_min":18,"x_max":597,"o":"m 589 21 q 597 13 597 19 q 572 -1 597 -1 q 480 -1 541 -1 q 390 0 419 -1 q 396 13 390 11 q 418 19 402 15 q 433 29 433 23 q 426 43 433 32 q 293 201 400 94 q 247 159 270 180 q 209 120 225 138 q 184 81 194 102 q 174 38 174 60 q 184 25 174 30 q 204 17 194 21 q 218 4 215 13 q 143 -1 189 -1 q 96 -1 131 -1 q 35 0 62 0 q 59 21 35 13 q 87 33 84 29 q 146 89 118 60 q 209 157 174 118 q 272 227 244 196 q 197 307 247 252 q 119 390 146 362 q 68 437 92 419 q 40 445 62 442 q 18 463 18 448 q 111 464 48 464 q 223 463 193 464 l 223 454 q 193 421 193 441 q 200 404 193 414 q 255 345 215 387 q 315 279 294 302 q 349 306 323 286 q 390 343 374 326 q 416 379 406 359 q 426 422 426 399 q 400 445 425 435 q 371 465 376 455 l 549 465 q 555 454 555 465 q 534 441 552 447 q 508 429 517 435 q 453 379 477 406 q 396 312 428 353 q 343 249 365 272 q 419 164 368 225 q 509 69 471 103 q 589 21 547 34 z "},"y":{"ha":635,"x_min":18,"x_max":637,"o":"m 637 464 q 629 447 636 451 q 605 438 623 444 q 582 425 588 433 q 538 352 555 391 q 501 253 521 313 q 469 168 480 193 q 404 13 448 122 q 322 -168 359 -96 q 235 -310 286 -241 q 183 -362 208 -345 q 121 -379 159 -379 q 35 -331 54 -374 q 24 -283 24 -303 q 47 -246 24 -252 q 66 -255 59 -246 q 82 -284 74 -265 q 97 -314 90 -303 q 118 -327 105 -325 q 205 -296 171 -327 q 264 -215 239 -264 q 319 -105 289 -166 q 361 -10 348 -53 q 305 91 344 21 q 213 251 267 161 q 121 394 160 340 q 85 415 105 415 q 68 411 76 415 q 44 367 44 398 q 46 343 44 360 q 47 318 47 327 q 51 289 47 306 q 56 257 56 271 q 24 323 30 293 q 18 372 18 355 q 43 439 18 412 q 101 471 67 467 q 186 429 160 471 q 299 254 232 367 q 401 82 367 142 q 434 152 420 118 q 461 227 447 186 q 489 311 476 269 q 515 394 502 353 q 493 435 515 410 q 474 441 488 440 q 454 445 460 443 q 449 461 449 448 q 527 462 455 461 q 637 464 598 462 z "},"z":{"ha":455,"x_min":13,"x_max":429,"o":"m 426 65 q 328 -17 413 5 q 300 -19 318 -19 q 256 -13 278 -19 q 200 5 234 -7 q 142 24 167 17 q 93 31 116 31 q 13 0 48 31 q 34 54 18 28 q 74 107 50 80 q 128 168 98 135 q 209 250 157 202 q 284 325 260 298 q 328 385 309 351 q 208 375 268 375 q 85 385 149 375 q 70 378 75 385 q 60 357 65 371 q 49 335 55 342 q 32 327 43 328 q 60 451 32 398 q 95 467 73 467 q 120 463 105 467 q 150 452 134 458 q 179 440 166 445 q 265 426 222 426 q 399 451 326 426 q 388 409 399 429 q 356 363 377 390 q 325 323 334 337 q 248 240 295 284 q 156 156 200 197 q 83 76 111 115 q 142 79 102 76 q 210 82 182 82 q 241 75 223 81 q 281 58 259 68 q 317 44 302 48 q 345 39 331 39 q 403 90 385 39 q 406 104 406 99 q 388 146 406 119 q 366 160 384 153 q 349 178 349 167 q 362 185 352 185 q 388 178 374 185 q 429 95 429 156 q 426 65 429 75 z "},"":{"ha":804,"x_min":24,"x_max":767,"o":"m 757 375 q 767 293 767 337 q 711 126 767 196 q 632 46 671 75 q 536 7 592 18 q 408 -7 462 -7 q 147 101 244 -7 q 24 421 24 236 q 82 659 24 542 q 222 837 141 773 q 425 924 303 901 q 457 926 436 926 q 541 912 489 926 q 615 899 593 899 q 660 907 637 899 q 693 900 690 907 q 700 823 693 866 q 707 765 707 779 q 701 740 707 749 q 672 751 681 740 q 654 785 663 763 q 637 817 646 807 q 472 892 576 892 q 401 883 438 892 q 286 826 337 868 q 199 722 236 784 q 140 585 163 660 q 113 404 113 492 q 250 86 113 206 q 429 28 318 28 q 563 58 503 28 q 640 114 607 80 q 690 193 672 149 q 708 290 708 238 q 697 380 708 343 q 655 446 686 417 q 558 492 602 492 q 515 482 535 492 q 436 434 465 461 q 401 362 407 407 q 399 343 401 355 q 397 323 397 332 q 418 268 397 293 q 490 237 445 237 q 493 225 493 233 q 454 193 493 199 q 360 244 394 193 q 342 317 342 278 q 393 449 342 384 q 546 524 456 524 q 626 508 585 524 q 713 457 681 489 q 757 375 745 426 z "},"":{"ha":493,"x_min":19,"x_max":471,"o":"m 229 429 q 124 335 165 416 q 99 229 99 281 q 149 97 99 156 q 227 40 184 55 q 229 168 229 110 l 229 429 m 280 463 q 328 453 295 461 q 382 446 361 446 q 410 449 391 446 q 424 367 424 408 q 417 315 424 343 q 401 331 406 320 q 391 358 396 342 q 376 383 385 375 q 280 432 334 424 l 280 167 q 282 29 280 74 q 333 39 310 32 q 383 66 363 48 q 430 121 404 83 q 460 161 457 158 l 471 161 q 441 87 468 124 q 379 31 414 51 q 282 -5 335 3 q 271 -97 279 -84 q 229 -7 239 -47 q 108 38 161 -4 q 19 211 19 107 q 33 289 19 244 q 108 398 55 353 q 229 458 162 443 l 229 567 l 279 567 q 280 519 279 554 q 280 463 280 485 z "},"":{"ha":1096,"x_min":64,"x_max":1075,"o":"m 729 885 l 729 890 q 694 887 694 890 q 729 885 694 887 m 817 857 q 818 603 818 786 q 817 278 818 412 q 815 74 816 143 q 827 46 815 52 q 873 31 839 40 q 891 28 875 30 q 913 22 906 25 q 920 10 920 18 q 917 -3 920 1 l 458 0 q 436 7 447 0 q 425 21 425 14 q 428 26 425 25 q 494 43 448 39 q 555 52 539 47 q 571 81 571 57 l 568 890 q 457 887 493 889 q 374 877 421 885 q 287 849 327 868 q 218 796 248 830 q 140 612 140 707 q 175 493 140 552 q 315 390 226 407 q 374 385 339 385 q 482 449 471 385 q 476 486 482 466 q 461 521 469 505 q 451 537 453 537 q 455 545 451 545 q 464 540 459 545 q 476 528 469 536 q 488 515 483 520 q 507 467 507 496 q 505 451 507 462 q 503 435 504 440 q 343 354 488 354 q 99 502 187 354 q 64 632 64 562 q 100 768 64 704 q 340 910 179 910 q 490 915 394 910 q 635 921 585 921 q 794 905 724 921 q 926 847 864 889 q 1075 659 1075 745 q 1060 607 1075 630 q 1016 553 1038 571 q 964 535 995 535 q 887 571 906 535 q 879 588 887 572 q 871 611 871 603 q 886 629 871 624 q 903 607 891 621 q 928 590 915 594 q 947 588 939 588 q 1000 618 990 588 q 1004 643 1004 630 q 990 708 1002 676 q 817 857 958 814 m 669 43 q 709 53 685 44 q 733 81 733 61 l 729 875 q 654 881 701 879 q 657 612 657 739 q 655 299 657 453 q 653 74 654 145 q 669 43 653 52 z "},"":{"ha":707,"x_min":25,"x_max":676,"o":"m 665 227 q 621 129 652 172 q 544 55 591 86 q 440 10 498 25 q 350 -1 392 -1 q 113 82 222 -1 q 25 267 25 153 q 38 351 25 308 q 143 507 67 448 q 328 578 220 566 q 379 581 346 581 q 618 476 524 581 q 676 314 676 410 q 665 227 676 277 m 621 236 q 631 308 631 281 q 581 449 631 390 q 375 537 498 537 q 333 535 361 537 q 223 503 272 528 q 139 437 174 478 q 87 342 104 396 q 76 268 76 300 q 150 113 76 172 q 351 42 246 42 q 429 52 384 42 q 554 118 504 70 q 621 236 604 166 m 519 153 q 490 122 513 128 q 440 135 453 122 q 404 199 422 154 q 369 267 385 244 q 317 301 353 290 q 346 317 321 317 q 418 339 400 317 q 433 378 432 357 q 431 396 433 382 q 376 442 420 433 q 315 443 360 443 q 318 157 315 249 q 322 146 318 148 q 331 143 327 144 q 340 138 336 142 q 346 128 344 135 q 237 122 299 122 q 256 138 243 134 q 271 146 270 142 q 276 232 276 174 l 276 437 q 265 446 276 440 q 257 447 263 447 q 249 447 251 447 q 244 455 244 447 q 254 465 244 465 q 296 466 268 465 q 339 467 325 467 q 418 455 386 467 q 469 410 451 444 q 476 383 476 396 q 464 337 476 370 q 389 292 441 305 q 410 276 406 280 q 436 237 427 262 q 455 186 446 212 q 482 146 465 161 q 500 156 495 146 q 490 186 500 176 q 507 196 495 192 q 519 153 519 176 z "},"":{"ha":707,"x_min":25,"x_max":676,"o":"m 665 227 q 621 129 652 172 q 544 55 591 86 q 440 10 498 25 q 350 -1 392 -1 q 113 82 222 -1 q 25 267 25 153 q 38 351 25 308 q 143 507 67 448 q 328 578 220 566 q 379 581 346 581 q 618 476 524 581 q 676 314 676 410 q 665 227 676 277 m 621 236 q 631 308 631 281 q 581 449 631 390 q 375 537 498 537 q 333 535 361 537 q 223 503 272 528 q 139 437 174 478 q 87 342 104 396 q 76 268 76 300 q 150 113 76 172 q 351 42 246 42 q 429 52 384 42 q 554 118 504 70 q 621 236 604 166 m 529 240 q 507 186 527 213 q 460 143 487 158 q 357 114 410 114 q 257 147 300 114 q 192 278 192 200 q 201 336 192 309 q 259 420 218 386 q 351 465 300 455 q 420 460 382 465 q 483 455 459 455 q 494 396 494 427 q 489 357 494 374 q 472 381 478 361 q 458 407 465 400 q 379 445 425 441 q 270 371 305 445 q 250 292 250 330 q 288 193 250 239 q 386 142 328 142 q 426 149 404 142 q 464 169 448 155 q 497 209 479 182 q 521 240 516 235 l 529 240 z "},"":{"ha":1096,"x_min":42,"x_max":1053,"o":"m 1018 502 q 773 354 927 354 q 666 371 709 354 q 612 435 622 388 q 610 464 610 454 q 629 515 610 496 q 660 545 654 545 q 664 537 664 545 q 649 500 664 529 q 635 449 635 471 q 743 385 644 385 q 800 390 776 385 q 940 493 889 407 q 975 614 975 549 q 899 796 975 708 q 804 860 860 840 q 697 884 748 880 q 549 890 645 888 l 545 81 q 561 52 545 57 q 622 43 576 47 q 688 26 668 39 q 692 21 692 24 q 680 7 692 15 q 657 0 668 0 q 361 -3 561 0 q 358 10 358 1 q 374 25 358 21 q 404 31 390 28 q 451 46 439 40 q 463 74 463 52 q 461 274 462 136 q 460 561 460 412 q 463 881 460 714 q 388 875 415 879 q 268 846 320 864 q 178 794 216 827 q 125 708 141 761 q 117 654 117 680 q 122 618 117 633 q 168 588 132 588 q 188 590 177 588 q 213 607 201 593 q 229 629 224 621 q 244 611 244 624 q 242 600 244 606 q 235 585 240 594 q 228 571 230 576 q 151 535 209 535 q 99 553 120 535 q 57 607 78 571 q 42 660 42 630 q 190 847 42 747 q 323 905 252 889 q 482 921 393 921 q 627 915 532 921 q 777 910 723 910 q 1015 768 937 910 q 1053 631 1053 702 q 1018 502 1053 560 z "},"":{"ha":896,"x_min":31,"x_max":899,"o":"m 413 388 q 299 443 373 443 q 221 424 256 443 q 138 345 163 394 q 114 225 114 295 q 213 46 119 84 q 267 35 242 35 q 411 111 345 35 q 409 194 411 139 q 407 276 408 249 q 413 388 407 337 m 483 349 q 568 429 513 399 q 690 463 623 458 q 722 464 701 464 q 885 365 854 464 q 890 327 890 346 q 851 240 890 279 q 712 190 803 190 q 586 218 646 190 q 581 225 581 221 q 586 229 581 229 q 692 215 649 215 q 797 247 758 215 q 833 325 833 279 q 826 365 833 341 q 763 428 814 408 q 707 437 735 437 q 602 396 651 437 q 532 251 534 340 q 537 197 532 236 q 583 89 550 133 q 667 33 616 44 q 707 29 687 29 q 899 133 805 29 q 879 76 896 108 q 836 32 862 45 q 683 -11 756 -11 q 574 18 626 -11 q 566 14 570 16 q 560 11 563 12 q 526 4 546 4 q 451 36 486 4 q 422 82 430 58 q 386 43 397 53 q 351 24 376 34 q 239 -3 293 -3 q 107 40 169 -3 q 31 201 31 94 q 35 253 31 228 q 58 331 42 297 q 101 392 75 366 q 168 440 128 419 q 282 469 225 469 q 415 432 349 469 q 463 463 428 460 q 475 461 468 463 q 486 460 483 460 q 485 405 486 442 q 483 349 484 367 z "},"":{"ha":349,"x_min":32,"x_max":674,"o":"m 668 847 q 674 814 674 831 q 651 761 674 782 q 602 742 630 742 q 574 744 593 742 q 563 763 563 748 q 583 783 568 771 q 604 802 597 795 q 611 822 611 809 q 571 887 611 863 q 496 910 538 910 q 356 854 421 910 q 237 671 272 787 q 201 421 201 555 q 255 423 220 421 q 306 425 290 425 q 351 418 328 425 q 350 409 351 412 q 345 402 348 406 q 340 397 341 398 q 205 394 300 394 q 204 217 205 322 q 203 56 203 112 q 212 41 203 44 q 240 33 220 37 q 269 22 259 28 q 279 1 279 16 l 82 1 q 90 21 82 15 q 111 32 97 27 q 133 42 125 37 q 140 60 140 48 l 142 393 q 57 397 82 395 q 32 413 33 400 q 67 421 32 421 l 146 421 q 143 471 143 454 q 170 647 143 562 q 248 800 196 733 q 371 901 299 867 q 515 933 437 933 q 613 912 572 933 q 668 847 654 891 z "},"":{"ha":921,"x_min":18,"x_max":918,"o":"m 475 178 q 471 218 471 196 q 478 283 471 246 q 451 343 472 311 q 356 421 412 405 q 278 433 309 433 q 147 357 196 433 q 108 222 108 297 q 119 140 108 184 q 173 66 134 94 q 265 35 212 37 q 280 34 270 35 q 294 33 290 33 q 431 93 385 33 q 475 178 463 137 m 510 358 q 710 463 573 454 q 742 464 721 464 q 904 365 873 464 q 910 327 910 347 q 871 240 910 279 q 732 190 823 190 q 606 218 666 190 q 600 225 600 222 q 606 229 600 229 q 711 215 668 215 q 817 247 778 215 q 853 325 853 279 q 846 365 853 343 q 782 428 834 408 q 726 437 755 437 q 621 396 671 437 q 551 251 553 340 q 557 197 551 236 q 602 89 569 133 q 686 33 635 44 q 726 29 707 29 q 918 133 825 29 q 899 77 916 108 q 856 32 882 45 q 701 -11 773 -11 q 540 58 610 -11 q 500 111 519 80 q 350 8 450 34 q 276 0 313 0 q 87 65 175 0 q 18 213 18 122 q 29 282 18 243 q 77 371 44 333 q 156 432 109 409 q 260 463 202 455 q 300 465 288 465 q 493 382 416 465 q 501 370 497 376 q 510 358 506 365 z "},"":{"ha":483,"x_min":21,"x_max":463,"o":"m 197 465 l 463 465 l 463 415 l 196 415 q 142 415 179 415 q 89 414 105 414 q 21 424 33 414 q 87 469 58 460 q 197 465 68 469 z "},"":{"ha":725,"x_min":31,"x_max":694,"o":"m 296 465 l 694 465 l 694 415 l 294 415 q 214 415 269 415 q 133 414 158 414 q 31 424 50 414 q 131 469 85 460 q 296 465 104 469 z "},"":{"ha":333,"x_min":33,"x_max":308,"o":"m 164 636 q 154 620 161 620 q 131 635 146 620 q 58 724 83 683 q 33 811 33 766 q 43 868 33 841 q 108 921 62 921 q 154 896 132 921 q 161 873 161 885 q 150 843 161 859 q 122 825 139 825 q 99 831 114 825 q 78 838 84 838 q 60 825 68 838 q 164 636 60 714 m 308 636 q 299 620 306 620 q 275 635 290 620 q 202 724 227 683 q 178 811 178 766 q 188 868 178 841 q 253 921 207 921 q 299 896 276 921 q 306 873 306 885 q 294 843 306 859 q 267 825 284 825 q 243 831 258 825 q 222 838 229 838 q 204 825 212 838 q 308 636 204 714 z "},"":{"ha":327,"x_min":31,"x_max":301,"o":"m 151 868 q 161 811 161 841 q 136 724 161 766 q 64 635 112 683 q 40 620 49 620 q 31 636 31 620 q 135 825 135 714 q 117 836 127 836 q 95 831 110 836 q 72 825 80 825 q 44 843 57 825 q 33 873 33 859 q 40 896 33 885 q 86 921 63 921 q 151 868 133 921 m 292 868 q 301 811 301 841 q 277 724 301 766 q 204 635 252 683 q 180 620 189 620 q 171 636 171 620 q 275 825 275 714 q 257 836 268 836 q 235 831 250 836 q 213 825 220 825 q 185 843 197 825 q 174 872 174 859 q 182 896 174 883 q 227 921 205 921 q 292 868 275 921 z "},"":{"ha":200,"x_min":33,"x_max":164,"o":"m 164 636 q 154 620 161 620 q 131 635 146 620 q 58 724 83 683 q 33 811 33 766 q 43 868 33 841 q 108 921 62 921 q 154 896 132 921 q 161 873 161 885 q 150 843 161 859 q 122 825 139 825 q 99 831 114 825 q 78 838 84 838 q 60 825 68 838 q 164 636 60 714 z "},"":{"ha":200,"x_min":31,"x_max":161,"o":"m 151 868 q 161 811 161 841 q 136 724 161 766 q 64 635 112 683 q 40 620 49 620 q 31 636 31 620 q 135 825 135 714 q 117 836 127 836 q 95 831 110 836 q 72 825 80 825 q 44 843 57 825 q 33 873 33 859 q 40 896 33 885 q 86 921 63 921 q 151 868 133 921 z "},"":{"ha":1165,"x_min":52,"x_max":1113,"o":"m 1113 783 q 1098 669 1113 724 q 1064 568 1084 613 q 1008 456 1043 522 q 954 347 974 390 q 896 231 926 283 q 838 140 866 179 q 749 18 811 101 q 717 1 734 1 q 701 4 707 1 q 693 66 698 26 q 681 139 688 106 q 659 200 673 171 q 601 304 635 250 q 528 424 568 358 q 470 546 489 491 q 451 663 451 601 q 458 735 451 694 q 496 856 468 784 q 420 877 470 861 q 340 901 370 893 q 276 908 310 908 q 170 879 220 908 q 117 786 117 847 q 128 735 117 761 q 182 674 141 703 q 213 667 194 667 q 251 674 229 667 q 274 691 261 676 q 294 707 288 707 q 303 703 299 707 q 308 690 308 697 q 256 637 308 673 q 190 617 227 617 q 107 646 149 617 q 52 754 52 685 q 62 815 52 782 q 229 943 112 939 q 307 937 269 943 q 390 919 344 930 q 468 902 436 907 q 536 896 500 896 q 567 908 548 897 q 603 920 587 920 q 621 896 621 913 q 615 879 621 885 q 580 861 604 867 q 545 850 555 855 q 525 821 534 844 q 504 712 504 757 q 539 602 504 657 q 616 484 574 546 q 693 322 657 422 q 743 67 729 222 q 853 231 804 152 q 943 396 902 310 q 1010 571 983 481 q 1046 750 1037 661 q 993 854 1046 820 q 933 873 966 873 q 890 865 913 873 q 858 844 871 859 q 836 813 845 830 q 815 775 827 796 q 810 769 813 769 q 801 777 805 769 q 796 790 798 785 q 906 921 827 893 q 967 933 940 933 q 1033 915 999 933 q 1113 783 1113 872 z "},"":{"ha":606,"x_min":24,"x_max":596,"o":"m 289 410 q 235 408 268 410 q 188 407 202 407 q 186 251 186 407 q 190 60 186 131 q 199 45 191 50 q 223 34 207 40 q 249 22 240 28 q 257 4 257 16 q 161 3 222 4 q 65 1 100 1 q 70 15 65 11 q 79 22 75 19 q 92 19 87 19 q 112 29 104 19 q 121 52 121 39 l 121 301 q 118 408 121 372 q 95 408 111 408 q 71 407 79 407 q 28 413 38 407 q 24 419 24 415 q 26 429 24 420 q 73 433 30 432 q 118 433 116 433 q 119 493 119 453 q 132 675 119 597 q 191 820 145 754 q 328 925 237 887 q 356 929 337 929 q 413 904 388 929 q 437 849 437 879 q 431 815 437 834 q 354 767 410 767 q 368 805 354 782 q 382 842 382 827 q 371 872 382 856 q 329 896 352 894 q 308 890 318 896 q 207 770 232 845 q 180 574 182 694 q 181 521 180 555 q 182 458 182 488 q 183 445 182 453 q 183 432 183 437 q 311 435 261 432 q 403 443 370 437 q 418 418 418 442 q 421 96 418 233 q 468 38 421 54 q 483 35 478 35 q 564 104 528 35 q 578 146 572 118 q 592 190 584 174 q 596 157 596 172 q 588 107 596 134 q 510 10 564 30 q 463 1 487 1 q 386 33 418 1 q 343 146 343 81 l 343 386 q 332 406 342 402 q 289 410 323 410 z "},"":{"ha":651,"x_min":24,"x_max":645,"o":"m 308 890 q 207 770 232 845 q 180 574 182 694 q 181 521 180 555 q 182 458 182 488 q 183 445 182 453 q 183 432 183 437 q 235 433 198 432 q 288 435 272 435 q 333 422 330 435 q 188 407 329 407 q 186 251 186 407 q 190 60 186 131 q 199 45 191 50 q 223 34 207 40 q 249 22 240 28 q 257 4 257 16 q 161 3 222 4 q 65 1 100 1 q 70 15 65 11 q 79 22 75 19 q 92 19 87 19 q 112 29 104 19 q 121 52 121 39 l 121 301 q 118 408 121 372 q 95 408 111 408 q 71 407 79 407 q 28 413 38 407 q 24 419 24 415 q 26 429 24 420 q 73 433 30 432 q 118 433 116 433 q 119 493 119 453 q 132 675 119 597 q 191 820 145 754 q 328 925 237 887 q 346 929 338 929 q 366 925 352 929 q 390 921 380 922 q 460 918 453 918 q 460 684 460 790 q 460 416 460 577 q 461 126 461 255 q 518 40 464 55 q 535 38 529 38 q 600 74 564 38 q 619 104 614 86 q 629 145 624 121 q 645 182 635 170 q 638 106 644 136 q 615 52 633 76 q 524 -3 578 -3 q 493 3 508 -3 q 431 46 452 17 q 403 112 410 75 q 396 199 396 149 q 393 424 393 265 q 394 606 394 483 q 396 773 395 729 q 396 805 396 787 q 397 830 397 824 q 374 886 397 867 q 337 901 354 901 q 308 890 324 901 z "},"":{"ha":1522,"x_min":67,"x_max":1483,"o":"m 1419 907 q 1483 763 1483 849 q 1464 652 1483 709 q 1404 500 1444 594 q 1284 253 1349 368 q 1135 22 1219 139 q 1095 -7 1113 -7 q 1081 1 1087 -7 q 1071 40 1074 16 q 1066 85 1068 63 q 1054 124 1063 107 q 994 244 1016 201 q 943 327 971 286 q 872 186 933 299 q 761 11 825 99 q 725 -4 751 -4 q 715 7 715 -4 q 685 147 715 84 q 594 294 655 210 q 502 436 534 378 q 465 565 471 494 q 464 614 464 582 q 519 860 464 755 q 468 864 491 860 q 410 878 446 868 q 351 892 374 888 q 303 897 328 897 q 231 885 264 897 q 138 808 157 860 q 129 763 129 786 q 162 688 129 719 q 231 657 195 657 q 260 661 244 657 q 279 670 272 665 q 298 686 286 674 q 315 701 310 697 q 325 685 325 701 q 319 667 325 675 q 269 628 300 643 q 204 614 237 614 q 162 621 187 614 q 85 685 111 640 q 67 750 67 717 q 86 825 67 784 q 171 912 114 886 q 314 939 228 939 q 363 931 338 938 q 419 914 388 925 q 473 899 450 904 q 518 893 496 893 q 602 921 565 893 q 612 926 607 926 q 637 901 625 926 q 621 865 637 879 q 585 851 605 851 q 525 750 531 848 q 524 735 525 745 q 524 722 524 726 q 548 585 524 640 q 630 439 573 529 q 721 266 687 350 q 763 62 754 182 q 813 141 789 97 q 868 249 837 184 q 921 350 900 314 q 888 395 901 377 q 866 429 876 413 q 849 468 857 446 q 806 667 806 571 q 896 887 806 803 q 985 926 937 926 q 1033 917 1010 926 q 1110 779 1110 888 q 1108 749 1110 758 q 1087 638 1103 694 q 1054 546 1070 583 q 997 418 1038 508 q 1044 328 1033 348 q 1074 268 1054 307 q 1099 206 1088 237 q 1117 143 1109 175 q 1136 68 1125 112 q 1319 396 1239 214 q 1399 740 1398 577 q 1303 873 1399 844 q 1240 853 1267 873 q 1201 818 1213 832 q 1192 838 1192 826 q 1196 854 1192 845 q 1210 876 1201 863 q 1222 893 1219 889 q 1325 942 1259 942 q 1419 907 1380 942 m 1024 826 q 938 872 1005 872 q 911 859 921 869 q 894 833 902 849 q 879 800 887 817 q 858 712 858 756 q 874 624 858 669 q 908 548 890 580 q 968 449 926 517 q 1044 706 1044 579 q 1024 826 1044 766 z "},"":{"ha":1158,"x_min":48,"x_max":1104,"o":"m 1104 118 q 1078 29 1104 50 q 1001 -3 1041 -3 q 969 4 988 -3 q 886 76 914 30 q 825 211 859 123 q 763 342 791 300 q 687 435 721 404 q 598 474 652 467 q 585 490 585 476 q 588 498 585 496 q 606 504 593 504 q 640 501 614 504 q 688 497 666 497 q 787 519 754 507 q 849 565 819 530 q 895 685 895 620 q 886 743 895 712 q 784 867 862 833 q 581 900 705 900 q 555 899 572 900 q 529 899 537 899 q 535 594 535 767 q 534 477 534 551 q 533 343 533 402 q 532 214 533 285 l 532 72 q 543 48 533 53 q 575 43 552 44 q 614 35 598 42 q 617 29 617 33 q 607 15 617 22 q 588 4 596 7 q 496 1 558 1 q 364 4 447 1 q 378 25 365 19 q 415 36 391 32 q 451 46 440 41 q 463 64 463 51 q 464 249 463 121 q 465 522 465 378 q 461 893 465 753 q 266 860 336 893 q 146 754 196 827 q 107 650 107 694 q 132 597 107 615 q 168 582 153 582 q 183 585 178 582 q 199 599 190 588 q 216 615 208 610 q 237 621 224 621 q 217 560 237 583 q 156 532 193 532 q 124 537 138 532 q 57 604 74 551 q 48 657 48 632 q 142 821 48 746 q 306 907 219 884 q 504 929 393 929 q 606 926 537 929 q 711 922 675 923 q 957 781 901 918 q 978 689 978 732 q 935 563 978 627 q 879 512 912 529 q 791 479 846 494 q 724 460 736 465 q 903 253 856 388 q 923 179 906 242 q 960 84 940 116 q 1019 35 979 53 q 1030 32 1028 32 q 1058 48 1045 32 q 1076 82 1072 65 q 1079 101 1079 97 q 1071 142 1079 117 q 1062 179 1062 168 q 1104 118 1099 166 z "},"":{"ha":1688,"x_min":81,"x_max":1607,"o":"m 1597 126 q 1607 119 1607 126 q 1589 68 1607 96 q 1479 -13 1543 1 q 1431 -17 1454 -17 q 1328 32 1359 -17 q 1251 314 1251 156 q 1257 418 1251 364 q 1276 547 1264 473 q 1299 676 1289 622 q 1307 736 1303 703 q 1315 807 1311 770 q 1211 664 1255 742 q 1138 514 1166 585 q 1068 323 1110 443 q 1003 147 1026 203 q 998 130 1002 144 q 991 108 994 115 q 982 95 988 101 q 976 92 980 92 q 960 110 960 92 q 975 171 975 140 q 967 215 975 194 q 947 259 959 236 q 921 308 934 282 q 904 356 908 333 q 851 472 881 406 q 798 585 821 538 q 743 689 775 631 q 682 789 711 746 q 679 613 680 743 q 677 401 678 484 q 672 240 676 318 q 670 200 671 221 q 668 161 668 179 q 714 39 668 73 q 748 33 722 34 q 775 22 774 32 q 729 1 775 1 q 621 0 686 1 q 521 -3 556 -2 q 514 5 514 -1 q 521 18 514 14 q 557 31 529 25 q 601 43 586 37 q 617 68 615 50 q 626 285 624 217 q 632 452 629 353 q 635 610 634 551 q 632 842 635 681 q 569 883 604 876 q 449 895 533 889 q 321 901 341 901 q 161 835 206 901 q 149 796 149 815 q 160 755 149 779 q 210 732 171 732 q 236 735 220 732 q 270 724 270 735 q 265 717 270 721 q 179 678 221 680 q 139 688 158 678 q 85 761 97 709 q 81 792 81 775 q 97 855 81 826 q 139 896 114 885 q 335 935 224 935 q 460 928 379 935 q 582 921 540 921 q 668 926 629 921 q 715 887 699 911 q 768 799 732 863 q 836 673 805 732 q 892 565 867 614 q 952 446 917 516 q 1029 294 988 375 q 1116 544 1092 479 q 1184 689 1140 609 q 1293 831 1228 768 q 1454 943 1358 895 q 1471 946 1458 946 q 1500 929 1500 946 q 1476 907 1489 910 q 1436 898 1462 904 q 1386 877 1410 893 q 1368 781 1375 818 q 1355 714 1360 744 q 1347 649 1351 684 q 1329 392 1329 476 q 1382 92 1329 235 q 1462 32 1403 36 q 1509 46 1491 32 q 1554 90 1528 60 q 1597 126 1580 119 z "},"":{"ha":1232,"x_min":56,"x_max":1190,"o":"m 1115 717 q 1190 461 1190 597 q 1071 154 1190 287 q 711 -3 924 -1 q 582 11 655 -3 q 521 18 547 18 q 478 15 499 18 q 436 8 457 13 q 383 -5 415 3 q 343 -15 351 -13 q 328 -18 336 -15 q 318 -10 318 -18 q 327 11 318 6 q 362 26 336 16 q 402 40 376 32 q 443 56 429 47 q 468 86 457 66 l 468 851 q 452 873 464 865 q 425 882 440 882 q 205 826 301 871 q 100 686 109 780 q 106 632 100 650 q 126 602 111 614 q 185 583 146 583 q 210 604 196 585 q 232 622 224 622 q 240 620 234 622 q 249 604 249 613 q 218 554 249 585 q 157 526 194 526 q 117 535 138 526 q 56 643 58 556 q 93 762 56 706 q 194 857 131 819 q 329 904 257 894 q 637 929 529 929 q 831 910 743 929 q 992 844 919 891 q 1115 717 1065 798 m 1018 211 q 1081 451 1081 320 q 1007 724 1081 597 q 701 887 919 870 q 623 889 673 889 q 551 890 574 889 q 550 657 550 818 q 553 117 550 464 l 553 40 q 591 37 565 39 q 647 35 617 35 q 696 38 668 35 q 1018 211 935 66 z "},"":{"ha":1107,"x_min":21,"x_max":1036,"o":"m 1033 336 q 1036 293 1036 321 q 932 76 1036 161 q 668 -1 832 -1 q 449 15 598 -1 q 403 10 424 15 q 354 -6 382 4 q 313 -19 326 -17 q 308 4 308 -7 q 323 31 308 23 q 365 41 331 34 q 419 57 400 48 q 439 85 438 66 q 437 362 437 176 q 439 792 437 651 l 439 882 q 400 878 415 880 q 364 871 384 875 q 332 864 343 866 q 197 814 249 847 q 113 718 144 782 q 103 692 110 710 q 91 660 95 674 q 86 633 86 646 q 101 596 86 611 q 168 576 123 576 q 186 592 177 578 q 204 607 196 607 q 215 603 209 607 q 167 526 211 547 q 129 517 149 517 q 60 546 95 517 q 21 631 21 576 q 46 707 21 673 q 186 840 110 792 q 345 905 262 888 q 531 922 428 922 q 584 921 562 922 q 636 919 607 920 q 704 915 665 917 q 895 806 844 908 q 917 720 917 762 q 912 679 917 700 q 876 611 904 638 q 785 535 849 585 q 813 522 798 525 q 850 516 829 519 q 885 504 870 512 q 1033 336 1021 436 m 918 393 q 843 467 891 440 q 735 493 794 493 q 699 490 724 493 q 652 481 683 488 q 606 474 621 474 q 574 482 585 474 q 569 490 569 484 q 578 508 569 499 q 597 518 588 517 q 730 553 673 521 q 815 645 787 584 q 830 707 830 677 q 807 790 830 748 q 772 834 793 818 q 725 858 750 850 q 669 872 700 866 q 604 882 637 877 q 507 890 559 890 q 511 607 509 756 q 514 284 513 458 q 515 47 515 110 q 647 38 588 38 q 903 142 834 38 q 949 280 949 210 q 918 393 949 338 z "},"":{"ha":1423,"x_min":65,"x_max":1365,"o":"m 1365 906 q 1348 877 1363 886 q 1307 855 1332 868 q 1271 825 1282 843 q 1215 596 1215 740 q 1222 428 1215 577 q 1236 152 1227 301 q 1249 -87 1244 3 q 1244 -95 1249 -91 q 1236 -99 1240 -99 q 1229 -96 1231 -99 q 1212 -39 1219 -78 q 1192 21 1205 0 q 1048 247 1117 141 q 920 438 979 353 q 802 606 862 523 q 669 781 741 688 q 660 771 660 781 l 659 139 q 679 52 659 79 q 708 33 688 39 q 744 22 728 27 q 765 4 760 17 q 690 -5 732 -5 q 626 -3 670 -5 q 561 0 583 0 q 512 -3 528 0 q 522 19 512 14 q 548 26 531 24 q 571 32 566 28 q 616 146 604 88 q 630 274 628 204 q 632 422 631 344 q 629 660 632 573 q 615 839 627 747 q 537 887 611 872 q 361 901 464 901 q 271 899 327 901 q 182 877 213 894 q 142 818 151 860 q 139 794 139 801 q 162 740 141 758 q 183 732 173 732 q 210 736 189 732 q 249 740 230 740 q 253 725 253 732 q 240 704 253 710 q 196 686 228 698 q 164 681 181 681 q 90 718 123 681 q 65 789 65 745 q 75 829 65 812 q 170 914 112 890 q 307 938 228 938 q 391 933 342 938 q 489 924 440 929 q 574 920 538 920 q 660 928 618 920 q 681 914 671 928 q 798 765 713 871 q 938 584 883 658 q 1061 408 993 510 q 1204 178 1129 306 q 1205 228 1205 194 q 1202 321 1205 272 q 1194 429 1199 370 q 1186 530 1189 488 q 1183 614 1183 571 q 1226 881 1183 763 q 1307 940 1248 936 q 1365 906 1365 940 z "},"":{"ha":815,"x_min":36,"x_max":779,"o":"m 779 372 q 771 356 779 361 q 754 346 763 351 q 746 331 746 341 q 748 242 747 304 q 750 149 750 181 q 710 -123 750 -12 q 555 -294 671 -234 q 475 -330 509 -319 q 401 -342 440 -342 q 396 -335 396 -338 q 401 -321 401 -325 q 636 -136 565 -276 q 676 48 676 -57 q 674 144 676 78 q 542 40 612 75 q 379 4 473 6 q 255 28 311 4 q 157 93 199 51 q 86 190 115 135 q 36 410 36 289 q 69 601 36 508 q 165 760 102 693 q 270 848 210 811 q 398 904 329 885 q 536 924 466 924 q 624 915 581 924 q 715 857 679 899 q 769 729 769 797 q 751 657 769 691 q 568 524 688 535 q 471 554 502 524 q 440 617 440 582 q 446 643 440 631 q 480 688 466 688 q 490 682 487 688 q 504 640 497 672 q 519 589 511 608 q 549 564 527 571 q 575 560 561 560 q 642 585 602 560 q 692 690 692 620 q 683 754 692 724 q 642 841 674 805 q 561 885 611 876 q 489 893 524 893 q 262 793 367 893 q 162 638 195 730 q 129 442 129 546 q 168 215 129 323 q 240 111 192 154 q 357 52 288 67 q 418 44 391 44 q 642 176 554 44 q 676 289 676 232 q 671 339 676 317 q 635 350 664 350 q 617 354 622 350 l 617 371 q 699 378 651 378 q 779 372 744 378 z "},"":{"ha":989,"x_min":46,"x_max":943,"o":"m 943 921 q 940 875 943 890 q 924 849 937 860 q 832 822 889 822 q 798 824 817 822 q 746 830 780 826 q 708 835 711 834 q 565 868 629 844 l 565 92 q 582 46 565 57 q 629 36 599 36 l 642 36 q 678 24 673 36 q 673 10 678 15 q 661 3 668 6 q 649 -1 653 0 q 390 1 478 -1 q 383 14 383 8 q 390 24 383 18 q 427 33 400 30 q 468 48 455 37 q 482 93 482 59 l 482 878 q 358 901 426 901 q 175 846 258 901 q 113 742 113 804 q 121 703 113 724 q 176 643 141 656 q 203 637 190 637 q 228 645 217 637 q 261 674 239 652 q 296 706 283 695 q 303 679 303 692 q 264 610 303 651 q 185 576 233 576 q 124 590 153 576 q 67 641 84 608 q 46 724 49 674 q 85 839 46 793 q 190 906 125 886 q 367 930 269 930 q 462 925 415 930 q 584 909 509 920 q 711 892 658 898 q 815 886 764 886 q 871 894 853 886 q 918 940 889 903 q 924 943 921 943 q 936 936 930 943 q 943 921 943 928 z "},"":{"ha":694,"x_min":0,"x_max":0,"o":""}}}
